<svg width="146" height="42" viewBox="0 0 146 42" fill="none" xmlns="http://www.w3.org/2000/svg">
<path d="M29.102 37.078C29.45 36.826 29.732 36.58 29.948 36.34C30.176 36.112 30.35 35.89 30.47 35.674C30.602 35.47 30.686 35.284 30.722 35.116C30.77 34.948 30.794 34.804 30.794 34.684C30.794 34.3 30.686 33.988 30.47 33.748C30.266 34.048 30.008 34.198 29.696 34.198C29.468 34.198 29.246 34.114 29.03 33.946C28.814 33.778 28.706 33.538 28.706 33.226C28.706 32.95 28.808 32.71 29.012 32.506C29.228 32.302 29.492 32.2 29.804 32.2C30.032 32.2 30.236 32.254 30.416 32.362C30.608 32.47 30.77 32.608 30.902 32.776C31.034 32.944 31.13 33.142 31.19 33.37C31.262 33.598 31.298 33.826 31.298 34.054C31.298 34.402 31.226 34.744 31.082 35.08C30.938 35.428 30.764 35.746 30.56 36.034C30.356 36.322 30.134 36.574 29.894 36.79C29.654 37.006 29.444 37.174 29.264 37.294L29.102 37.078Z" fill="#333333"/>
<path d="M5.32617 7.96289C5.41406 7.61719 5.49902 7.23633 5.58105 6.82031C5.66309 6.39844 5.73633 5.97656 5.80078 5.55469C5.86523 5.12695 5.91797 4.7168 5.95898 4.32422C6 3.93164 6.02637 3.58887 6.03809 3.2959C5.82715 3.2959 5.59277 3.29883 5.33496 3.30469C5.08301 3.30469 4.83105 3.30762 4.5791 3.31348C4.32715 3.31348 4.08105 3.31934 3.84082 3.33105C3.60645 3.33691 3.40137 3.3457 3.22559 3.35742C3.14355 3.36328 3.03809 3.37207 2.90918 3.38379C2.78027 3.39551 2.64258 3.41016 2.49609 3.42773C2.35547 3.43945 2.20898 3.45703 2.05664 3.48047C1.91016 3.50391 1.77246 3.52734 1.64355 3.55078C1.57324 3.41016 1.5 3.27246 1.42383 3.1377C1.35352 2.99707 1.2832 2.85645 1.21289 2.71582C1.32422 2.72754 1.4502 2.73926 1.59082 2.75098C1.7373 2.7627 1.88379 2.77441 2.03027 2.78613C2.17676 2.79785 2.31445 2.80957 2.44336 2.82129C2.57812 2.82715 2.69238 2.83008 2.78613 2.83008C3.10254 2.83008 3.44824 2.82422 3.82324 2.8125C4.19824 2.80078 4.57617 2.78613 4.95703 2.76855C5.33789 2.75098 5.7041 2.72754 6.05566 2.69824C6.40723 2.66895 6.71484 2.63672 6.97852 2.60156C7.02539 2.64844 7.06934 2.69531 7.11035 2.74219C7.15723 2.78906 7.2041 2.83594 7.25098 2.88281C7.19824 3.25781 7.13086 3.6709 7.04883 4.12207C6.9668 4.57324 6.87305 5.02734 6.76758 5.48438C6.66797 5.94141 6.55957 6.38379 6.44238 6.81152C6.33105 7.23926 6.21973 7.61426 6.1084 7.93652C6.30176 7.93066 6.49805 7.92188 6.69727 7.91016C6.90234 7.89258 7.10449 7.875 7.30371 7.85742C7.50293 7.83398 7.69336 7.81055 7.875 7.78711C8.05664 7.76367 8.22656 7.74023 8.38477 7.7168C8.36719 7.85156 8.34961 7.98926 8.33203 8.12988C8.31445 8.27051 8.29395 8.4082 8.27051 8.54297C8.15332 8.53711 8.0127 8.53418 7.84863 8.53418C7.68457 8.52832 7.50879 8.52246 7.32129 8.5166C7.13379 8.51074 6.9375 8.50781 6.73242 8.50781C6.5332 8.50195 6.33691 8.49902 6.14355 8.49902C5.52832 8.49902 4.93359 8.50781 4.35938 8.52539C3.79102 8.53711 3.26074 8.55762 2.76855 8.58691C2.28223 8.61035 1.84863 8.63672 1.46777 8.66602C1.08691 8.69531 0.782227 8.72461 0.553711 8.75391C0.500977 8.60742 0.448242 8.46387 0.395508 8.32324C0.342773 8.18262 0.290039 8.03613 0.237305 7.88379C0.407227 7.90137 0.588867 7.91895 0.782227 7.93652C0.981445 7.94824 1.17773 7.96289 1.37109 7.98047C1.57031 7.99219 1.76074 8.00391 1.94238 8.01562C2.12988 8.02148 2.29688 8.02441 2.44336 8.02441C2.64258 8.02441 2.8623 8.02148 3.10254 8.01562C3.34863 8.00977 3.60059 8.00391 3.8584 7.99805C4.11621 7.99219 4.37109 7.98633 4.62305 7.98047C4.88086 7.97461 5.11523 7.96875 5.32617 7.96289ZM13.8688 5.65137C14.1207 5.63965 14.3522 5.63379 14.5631 5.63379C14.7741 5.62793 14.944 5.62207 15.0729 5.61621C15.2662 5.61035 15.4684 5.59863 15.6793 5.58105C15.8903 5.56348 16.0983 5.5459 16.3034 5.52832C16.5143 5.50488 16.7164 5.48438 16.9098 5.4668C17.1032 5.44336 17.2819 5.41992 17.4459 5.39648L17.3053 6.22266C17.1881 6.2168 17.0475 6.21094 16.8834 6.20508C16.7252 6.19922 16.5524 6.19629 16.3649 6.19629C16.1774 6.19043 15.984 6.18457 15.7848 6.17871C15.5856 6.17285 15.3893 6.16992 15.1959 6.16992C15.0377 6.16992 14.8327 6.17285 14.5807 6.17871C14.3346 6.17871 14.0651 6.18457 13.7721 6.19629C13.485 6.20215 13.1862 6.21094 12.8756 6.22266C12.5709 6.22852 12.2809 6.2373 12.0055 6.24902C11.7301 6.25488 11.4811 6.26367 11.2584 6.27539C11.0416 6.28125 10.8776 6.28711 10.7662 6.29297C10.6608 6.29883 10.5436 6.30762 10.4147 6.31934C10.2916 6.3252 10.1657 6.33398 10.0368 6.3457C9.90785 6.35742 9.77894 6.37207 9.65004 6.38965C9.52699 6.40137 9.41566 6.41309 9.31605 6.4248L8.96449 5.55469C9.22816 5.58398 9.52699 5.61328 9.86098 5.64258C10.195 5.66602 10.4938 5.68359 10.7575 5.69531C10.8629 5.70117 10.9918 5.7041 11.1442 5.7041C11.3024 5.7041 11.4723 5.7041 11.6539 5.7041C11.8414 5.7041 12.0407 5.7041 12.2516 5.7041C12.4625 5.69824 12.6793 5.69531 12.902 5.69531V4.75488C12.6383 4.7666 12.3922 4.77539 12.1637 4.78125C11.9352 4.78711 11.7272 4.7959 11.5397 4.80762C11.3112 4.8252 11.1383 4.77246 11.0211 4.64941C10.9039 4.52051 10.8454 4.37109 10.8454 4.20117V3.08496C10.8454 2.97363 10.8366 2.88281 10.819 2.8125C10.8073 2.73633 10.775 2.6748 10.7223 2.62793C10.6696 2.5752 10.5934 2.52832 10.4938 2.4873C10.3942 2.44629 10.2565 2.40234 10.0807 2.35547L10.2829 1.96875C10.5348 2.01563 10.8219 2.05078 11.1442 2.07422C11.4723 2.0918 11.8151 2.10352 12.1725 2.10938C12.5358 2.11523 12.8991 2.11523 13.2623 2.10938C13.6315 2.09766 13.983 2.08301 14.317 2.06543C14.651 2.04199 14.9528 2.01855 15.2223 1.99512C15.4977 1.96582 15.7204 1.93652 15.8903 1.90723L15.7409 2.70703C15.0319 2.67188 14.3346 2.65723 13.6491 2.66309C12.9635 2.66309 12.3629 2.67773 11.8473 2.70703V4.02539C11.8473 4.125 11.8561 4.18359 11.8737 4.20117C11.8912 4.21875 11.9528 4.23047 12.0582 4.23633C12.275 4.24219 12.5475 4.23926 12.8756 4.22754C13.2096 4.21582 13.5582 4.19824 13.9215 4.1748C14.2848 4.15137 14.6452 4.12207 15.0026 4.08691C15.36 4.05176 15.6764 4.0166 15.9518 3.98145L15.7848 4.78125C15.486 4.75781 15.1754 4.74316 14.8532 4.7373C14.5309 4.73145 14.2028 4.72852 13.8688 4.72852V5.65137ZM13.8248 6.92578C14.0534 6.96094 14.2643 7.02539 14.4577 7.11914C14.651 7.21289 14.818 7.32715 14.9586 7.46191C15.0993 7.59668 15.2077 7.74902 15.2838 7.91895C15.36 8.08301 15.3981 8.26172 15.3981 8.45508C15.3981 8.67773 15.3454 8.88281 15.2399 9.07031C15.1403 9.26367 14.9967 9.43066 14.8092 9.57129C14.6276 9.71191 14.4108 9.82031 14.1588 9.89648C13.9069 9.97852 13.6315 10.0195 13.3327 10.0195C13.0338 10.0195 12.7584 9.97852 12.5065 9.89648C12.2545 9.82031 12.0348 9.71191 11.8473 9.57129C11.6657 9.43066 11.5221 9.26367 11.4166 9.07031C11.317 8.88281 11.2672 8.67773 11.2672 8.45508C11.2672 8.25586 11.3082 8.06836 11.3903 7.89258C11.4723 7.7168 11.5866 7.56152 11.733 7.42676C11.8795 7.29199 12.0553 7.18066 12.2604 7.09277C12.4713 7.00488 12.7028 6.94629 12.9547 6.91699C12.943 6.83496 12.9079 6.77344 12.8493 6.73242C12.7965 6.69141 12.694 6.65039 12.5416 6.60938L12.7702 6.29297C12.8287 6.30469 12.9079 6.32227 13.0075 6.3457C13.1129 6.36328 13.2184 6.38379 13.3239 6.40723C13.4352 6.4248 13.5436 6.44824 13.6491 6.47754C13.7604 6.50098 13.8541 6.52148 13.9303 6.53906C13.9186 6.58594 13.901 6.6416 13.8776 6.70605C13.8541 6.77051 13.8366 6.84375 13.8248 6.92578ZM14.3873 8.40234C14.3873 8.25586 14.358 8.11816 14.2995 7.98926C14.2409 7.85449 14.1618 7.74023 14.0621 7.64648C13.9684 7.55273 13.8571 7.47949 13.7282 7.42676C13.5993 7.36816 13.4674 7.33887 13.3327 7.33887C13.192 7.33887 13.0602 7.36816 12.9371 7.42676C12.8141 7.47949 12.7057 7.55273 12.612 7.64648C12.5182 7.74023 12.442 7.85449 12.3834 7.98926C12.3307 8.11816 12.3043 8.25586 12.3043 8.40234C12.3043 8.55469 12.3307 8.69531 12.3834 8.82422C12.442 8.95312 12.5182 9.06152 12.612 9.14941C12.7057 9.24316 12.8141 9.31641 12.9371 9.36914C13.0602 9.42188 13.192 9.44824 13.3327 9.44824C13.4733 9.44824 13.6051 9.42188 13.7282 9.36914C13.8571 9.31641 13.9684 9.24316 14.0621 9.14941C14.1618 9.06152 14.2409 8.95312 14.2995 8.82422C14.358 8.69531 14.3873 8.55469 14.3873 8.40234ZM20.9436 2.93555C21.1897 2.97656 21.4124 3.0498 21.6116 3.15527C21.8108 3.25488 21.9807 3.37793 22.1214 3.52441C22.262 3.66504 22.3704 3.82617 22.4466 4.00781C22.5227 4.18945 22.5608 4.37988 22.5608 4.5791C22.5608 4.81934 22.5081 5.04199 22.4026 5.24707C22.2971 5.45215 22.1507 5.63086 21.9632 5.7832C21.7757 5.93555 21.553 6.05566 21.2952 6.14355C21.0374 6.23145 20.7561 6.27539 20.4514 6.27539C20.1468 6.27539 19.8655 6.23145 19.6077 6.14355C19.3499 6.05566 19.1272 5.93555 18.9397 5.7832C18.7581 5.63086 18.6145 5.45215 18.5091 5.24707C18.4095 5.04199 18.3596 4.81934 18.3596 4.5791C18.3596 4.36816 18.4007 4.16895 18.4827 3.98145C18.5647 3.79395 18.6819 3.62695 18.8343 3.48047C18.9866 3.32812 19.1682 3.20508 19.3792 3.11133C19.596 3.01172 19.8362 2.94727 20.0999 2.91797C20.094 2.83594 20.0647 2.77441 20.012 2.7334C19.9651 2.68652 19.8772 2.64258 19.7483 2.60156L19.9329 2.28516C19.9915 2.29688 20.0706 2.31445 20.1702 2.33789C20.2698 2.36133 20.3723 2.38477 20.4778 2.4082C20.5891 2.43164 20.6975 2.45508 20.803 2.47852C20.9085 2.50195 20.9964 2.52246 21.0667 2.54004C21.055 2.5752 21.0345 2.62793 21.0052 2.69824C20.9817 2.76855 20.9612 2.84766 20.9436 2.93555ZM21.5413 4.53516C21.5413 4.37109 21.512 4.22168 21.4534 4.08691C21.3948 3.94629 21.3128 3.82617 21.2073 3.72656C21.1077 3.62109 20.9934 3.53906 20.8645 3.48047C20.7356 3.42188 20.6009 3.39258 20.4602 3.39258C20.3196 3.39258 20.1819 3.42188 20.0471 3.48047C19.9182 3.53906 19.804 3.62109 19.7044 3.72656C19.6106 3.82617 19.5345 3.94629 19.4759 4.08691C19.4173 4.22168 19.388 4.37109 19.388 4.53516C19.388 4.71094 19.4173 4.86914 19.4759 5.00977C19.5345 5.15039 19.6106 5.27051 19.7044 5.37012C19.804 5.46973 19.9182 5.54883 20.0471 5.60742C20.1819 5.66016 20.3196 5.68652 20.4602 5.68652C20.6009 5.68652 20.7356 5.66016 20.8645 5.60742C20.9993 5.54883 21.1165 5.46973 21.2161 5.37012C21.3157 5.27051 21.3948 5.15039 21.4534 5.00977C21.512 4.86914 21.5413 4.71094 21.5413 4.53516ZM25.1712 9.71191C24.8137 9.70605 24.4475 9.70312 24.0725 9.70312C23.6975 9.70312 23.3313 9.70605 22.9739 9.71191C22.6165 9.71777 22.2737 9.72656 21.9456 9.73828C21.6233 9.75 21.3333 9.76465 21.0755 9.78223C20.847 9.7998 20.68 9.75293 20.5745 9.6416C20.469 9.53613 20.4163 9.41602 20.4163 9.28125V8.18262C20.4163 8.05957 20.4104 7.96289 20.3987 7.89258C20.387 7.81641 20.3548 7.75488 20.302 7.70801C20.2552 7.65527 20.179 7.61133 20.0735 7.57617C19.9739 7.54102 19.8333 7.5 19.6516 7.45312L19.8274 7.05762C19.9095 7.06934 20.0237 7.08398 20.1702 7.10156C20.3167 7.11914 20.469 7.13965 20.6272 7.16309C20.7913 7.18652 20.9495 7.20996 21.1018 7.2334C21.2542 7.25098 21.3743 7.26855 21.4622 7.28613C21.4563 7.32129 21.4505 7.36816 21.4446 7.42676C21.4387 7.48535 21.4329 7.5498 21.427 7.62012C21.4212 7.68457 21.4153 7.74902 21.4095 7.81348C21.4036 7.87793 21.4007 7.93652 21.4007 7.98926V9C21.4007 9.09961 21.4124 9.1582 21.4358 9.17578C21.4593 9.19336 21.5208 9.20508 21.6204 9.21094C21.8372 9.2168 22.1038 9.21094 22.4202 9.19336C22.7425 9.17578 23.0735 9.15234 23.4134 9.12305C23.7591 9.09961 24.0989 9.07031 24.4329 9.03516C24.7669 9 25.0569 8.96484 25.303 8.92969L25.1712 9.71191ZM24.635 6.22266C24.635 6.35742 24.6321 6.50391 24.6262 6.66211C24.6204 6.81445 24.6116 6.96973 24.5999 7.12793C24.5882 7.28613 24.5735 7.43555 24.5559 7.57617C24.5442 7.7168 24.5296 7.83691 24.512 7.93652L23.721 8.05957C23.7093 7.98926 23.6975 7.88965 23.6858 7.76074C23.68 7.63184 23.6741 7.49414 23.6682 7.34766C23.6624 7.19531 23.6565 7.0459 23.6507 6.89941C23.6448 6.74707 23.6419 6.61816 23.6419 6.5127V2.61914C23.6419 2.44922 23.5598 2.31152 23.3958 2.20605C23.2376 2.09473 22.9651 1.98926 22.5784 1.88965L22.7278 1.50293C22.8743 1.52051 23.0413 1.54395 23.2288 1.57324C23.4221 1.60254 23.6096 1.63477 23.7913 1.66992C23.9788 1.70508 24.1546 1.7373 24.3186 1.7666C24.4886 1.7959 24.6262 1.81934 24.7317 1.83691C24.72 1.88965 24.7083 1.95996 24.6966 2.04785C24.6848 2.13574 24.6731 2.22363 24.6614 2.31152C24.6555 2.39941 24.6497 2.47852 24.6438 2.54883C24.638 2.61328 24.635 2.64844 24.635 2.6543V4.41211C24.7581 4.40039 24.8958 4.38867 25.0481 4.37695C25.2005 4.35938 25.3528 4.3418 25.5052 4.32422C25.6634 4.30664 25.8157 4.28906 25.9622 4.27148C26.1087 4.24805 26.2405 4.22461 26.3577 4.20117L26.2434 5.00098C26.1555 4.99512 26.0442 4.99219 25.9095 4.99219C25.7805 4.98633 25.6429 4.9834 25.4964 4.9834C25.3499 4.9834 25.2005 4.9834 25.0481 4.9834C24.9016 4.9834 24.7639 4.9834 24.635 4.9834V6.22266ZM4.54395 17.5723C4.6084 17.5605 4.67285 17.5518 4.7373 17.5459C4.80176 17.5342 4.86035 17.5254 4.91309 17.5195L4.71973 18.2666C4.52637 18.249 4.3125 18.2373 4.07812 18.2314C3.84961 18.2256 3.61523 18.2227 3.375 18.2227C3.13477 18.2168 2.8916 18.2168 2.64551 18.2227C2.39941 18.2285 2.16797 18.2373 1.95117 18.249C1.93945 18.29 1.92773 18.3369 1.91602 18.3896C1.91016 18.4365 1.90137 18.4922 1.88965 18.5566L1.18652 18.6797C1.15723 18.5566 1.12793 18.4043 1.09863 18.2227C1.06934 18.0352 1.04883 17.8652 1.03711 17.7129L0.878906 15.7354C0.867188 15.6357 0.852539 15.5566 0.834961 15.498C0.817383 15.4395 0.785156 15.3926 0.738281 15.3574C0.697266 15.3164 0.638672 15.2812 0.5625 15.252C0.486328 15.2168 0.383789 15.1787 0.254883 15.1377L0.439453 14.7422C0.826172 14.7949 1.20117 14.8301 1.56445 14.8477C1.92773 14.8652 2.29102 14.8711 2.6543 14.8652C3.01758 14.8594 3.38379 14.8447 3.75293 14.8213C4.12207 14.7979 4.50293 14.7686 4.89551 14.7334C4.87793 14.8857 4.85156 15.082 4.81641 15.3223C4.78711 15.5566 4.75488 15.8086 4.71973 16.0781C4.68457 16.3418 4.64941 16.6055 4.61426 16.8691C4.58496 17.1328 4.56152 17.3672 4.54395 17.5723ZM3.75293 15.3926C3.38965 15.375 3.06738 15.3721 2.78613 15.3838C2.50488 15.3955 2.20898 15.4131 1.89844 15.4365L1.96875 17.5459C1.96875 17.5693 1.96875 17.5957 1.96875 17.625C1.97461 17.6484 1.97461 17.6777 1.96875 17.7129C2.23242 17.7012 2.51074 17.6895 2.80371 17.6777C3.09668 17.6602 3.38086 17.6455 3.65625 17.6338L3.75293 15.3926ZM6.81152 18.2227C6.81152 18.3574 6.80859 18.5039 6.80273 18.6621C6.79688 18.8145 6.78809 18.9697 6.77637 19.1279C6.76465 19.2861 6.75 19.4355 6.73242 19.5762C6.7207 19.7168 6.70605 19.8369 6.68848 19.9365L5.89746 20.0596C5.88574 19.9893 5.87402 19.8896 5.8623 19.7607C5.85645 19.6318 5.85059 19.4941 5.84473 19.3477C5.83887 19.1953 5.83301 19.0459 5.82715 18.8994C5.82129 18.7471 5.81836 18.6182 5.81836 18.5127V14.6191C5.81836 14.4492 5.73633 14.3115 5.57227 14.2061C5.41406 14.0947 5.1416 13.9893 4.75488 13.8896L4.9043 13.5029C5.05078 13.5205 5.21777 13.5439 5.40527 13.5732C5.59863 13.6025 5.78613 13.6348 5.96777 13.6699C6.15527 13.7051 6.33105 13.7373 6.49512 13.7666C6.66504 13.7959 6.80273 13.8193 6.9082 13.8369C6.89648 13.8896 6.88477 13.96 6.87305 14.0479C6.86133 14.1357 6.84961 14.2236 6.83789 14.3115C6.83203 14.3994 6.82617 14.4785 6.82031 14.5488C6.81445 14.6133 6.81152 14.6484 6.81152 14.6543V16.4121C6.93457 16.4004 7.07227 16.3887 7.22461 16.377C7.37695 16.3594 7.5293 16.3418 7.68164 16.3242C7.83984 16.3066 7.99219 16.2891 8.13867 16.2715C8.28516 16.248 8.41699 16.2246 8.53418 16.2012L8.41992 17.001C8.33203 16.9951 8.2207 16.9922 8.08594 16.9922C7.95703 16.9863 7.81934 16.9834 7.67285 16.9834C7.52637 16.9834 7.37695 16.9834 7.22461 16.9834C7.07812 16.9834 6.94043 16.9834 6.81152 16.9834V18.2227ZM7.34766 21.7119C6.99023 21.7061 6.62402 21.7031 6.24902 21.7031C5.87402 21.7031 5.50781 21.7061 5.15039 21.7119C4.79297 21.7178 4.4502 21.7266 4.12207 21.7383C3.7998 21.75 3.50977 21.7646 3.25195 21.7822C3.02344 21.7998 2.85645 21.7529 2.75098 21.6416C2.64551 21.5361 2.59277 21.416 2.59277 21.2812V20.1826C2.59277 20.0596 2.58691 19.9629 2.5752 19.8926C2.56348 19.8164 2.53125 19.7549 2.47852 19.708C2.43164 19.6553 2.35547 19.6113 2.25 19.5762C2.15039 19.541 2.00977 19.5 1.82812 19.4531L2.00391 19.0576C2.08594 19.0693 2.2002 19.084 2.34668 19.1016C2.49316 19.1191 2.64551 19.1396 2.80371 19.1631C2.96777 19.1865 3.12598 19.21 3.27832 19.2334C3.43066 19.251 3.55078 19.2686 3.63867 19.2861C3.63281 19.3213 3.62695 19.3682 3.62109 19.4268C3.61523 19.4854 3.60938 19.5498 3.60352 19.6201C3.59766 19.6846 3.5918 19.749 3.58594 19.8135C3.58008 19.8779 3.57715 19.9365 3.57715 19.9893V21C3.57715 21.0996 3.58887 21.1582 3.6123 21.1758C3.63574 21.1934 3.69727 21.2051 3.79688 21.2109C4.01367 21.2168 4.28027 21.2109 4.59668 21.1934C4.91895 21.1758 5.25 21.1523 5.58984 21.123C5.93555 21.0996 6.27539 21.0703 6.60938 21.0352C6.94336 21 7.2334 20.9648 7.47949 20.9297L7.34766 21.7119ZM14.7301 14.6191C14.7301 14.4492 14.6481 14.3115 14.484 14.2061C14.3258 14.0947 14.0534 13.9893 13.6666 13.8896L13.8161 13.5029C13.9625 13.5205 14.1295 13.5439 14.317 13.5732C14.5104 13.6025 14.6979 13.6348 14.8795 13.6699C15.067 13.7051 15.2428 13.7373 15.4069 13.7666C15.5768 13.7959 15.7145 13.8193 15.82 13.8369C15.8082 13.8896 15.7965 13.96 15.7848 14.0479C15.7731 14.1357 15.7614 14.2236 15.7496 14.3115C15.7438 14.3994 15.7379 14.4785 15.7321 14.5488C15.7262 14.6133 15.7233 14.6484 15.7233 14.6543V17.0449C15.8522 17.0273 15.9928 17.0127 16.1452 17.001C16.3034 16.9834 16.4586 16.9658 16.611 16.9482C16.7692 16.9248 16.9215 16.9043 17.068 16.8867C17.2145 16.8633 17.3463 16.8398 17.4635 16.8164L17.358 17.6338C17.2702 17.6279 17.1588 17.625 17.0241 17.625C16.8952 17.625 16.7545 17.625 16.6022 17.625C16.4557 17.625 16.3034 17.625 16.1452 17.625C15.9928 17.625 15.8522 17.625 15.7233 17.625V19.4795C15.7233 19.6611 15.7204 19.8721 15.7145 20.1123C15.7086 20.3467 15.6998 20.584 15.6881 20.8242C15.6764 21.0645 15.6618 21.293 15.6442 21.5098C15.6266 21.7266 15.609 21.8994 15.5914 22.0283L14.818 22.1338C14.8063 22.04 14.7946 21.9111 14.7829 21.7471C14.777 21.5889 14.7682 21.416 14.7565 21.2285C14.7506 21.041 14.7448 20.8506 14.7389 20.6572C14.733 20.4639 14.7301 20.2822 14.7301 20.1123V18.3633C14.4664 18.4629 14.1764 18.5684 13.86 18.6797C13.5495 18.7852 13.2301 18.8877 12.902 18.9873C12.5797 19.0811 12.2633 19.166 11.9528 19.2422C11.6422 19.3184 11.358 19.374 11.1002 19.4092C10.7604 19.4619 10.5143 19.4209 10.362 19.2861C10.2155 19.1514 10.1422 18.9434 10.1422 18.6621V15.9902C10.1422 15.9023 10.1305 15.8291 10.1071 15.7705C10.0895 15.7119 10.0485 15.6621 9.98402 15.6211C9.92543 15.5742 9.83754 15.5332 9.72035 15.498C9.60902 15.4629 9.45668 15.4277 9.26332 15.3926L9.40394 15.0059C9.54457 15.0117 9.69691 15.0234 9.86098 15.041C10.0309 15.0527 10.1979 15.0703 10.362 15.0938C10.5319 15.1113 10.693 15.1318 10.8454 15.1553C10.9977 15.1787 11.1325 15.1992 11.2496 15.2168C11.2379 15.2695 11.2262 15.3398 11.2145 15.4277C11.2028 15.5098 11.1911 15.5947 11.1793 15.6826C11.1735 15.7646 11.1676 15.8379 11.1618 15.9023C11.1559 15.9668 11.153 16.0049 11.153 16.0166V18.4775C11.153 18.5654 11.1559 18.627 11.1618 18.6621C11.1735 18.6973 11.194 18.7119 11.2233 18.7061C11.3932 18.6943 11.6188 18.6621 11.9 18.6094C12.1871 18.5566 12.4948 18.4951 12.8229 18.4248C13.151 18.3486 13.4821 18.2666 13.8161 18.1787C14.15 18.085 14.4547 17.9941 14.7301 17.9062V14.6191ZM21.7259 17.5459C22.0364 17.792 22.3733 18.0527 22.7366 18.3281C23.0999 18.6035 23.4661 18.8555 23.8352 19.084L23.097 19.7344C22.8157 19.4355 22.5286 19.1338 22.2356 18.8291C21.9485 18.5186 21.6585 18.2227 21.3655 17.9414C20.9788 18.3516 20.5569 18.7295 20.0999 19.0752C19.6429 19.415 19.1624 19.7256 18.6585 20.0068L18.3948 19.6729C18.7932 19.415 19.1741 19.125 19.5374 18.8027C19.9065 18.4746 20.2405 18.1348 20.5393 17.7832C20.8382 17.4258 21.096 17.0625 21.3128 16.6934C21.5354 16.3184 21.6995 15.9551 21.805 15.6035C21.7171 15.6035 21.6145 15.6064 21.4973 15.6123C21.3802 15.6182 21.26 15.624 21.137 15.6299C21.0139 15.6357 20.8938 15.6416 20.7766 15.6475C20.6595 15.6533 20.5598 15.6562 20.4778 15.6562C20.4134 15.6562 20.3255 15.6621 20.2141 15.6738C20.1087 15.6855 19.9915 15.6973 19.8626 15.709C19.7395 15.7207 19.6136 15.7354 19.4846 15.7529C19.3616 15.7705 19.2503 15.7852 19.1507 15.7969L18.6145 14.9619C18.6907 14.9736 18.7932 14.9883 18.9221 15.0059C19.0511 15.0234 19.1887 15.041 19.3352 15.0586C19.4817 15.0703 19.6223 15.082 19.7571 15.0938C19.8977 15.1055 20.0179 15.1113 20.1175 15.1113C20.3284 15.1113 20.554 15.1084 20.7942 15.1025C21.0345 15.0908 21.2718 15.0762 21.5061 15.0586C21.7464 15.041 21.9749 15.0176 22.1917 14.9883C22.4085 14.959 22.6018 14.9268 22.7718 14.8916L23.1057 15.1992C22.8011 16.0488 22.3411 16.8311 21.7259 17.5459ZM23.2991 13.5029C23.4339 13.5205 23.5921 13.5439 23.7737 13.5732C23.9554 13.6025 24.1399 13.6348 24.3274 13.6699C24.5149 13.7051 24.6936 13.7373 24.8636 13.7666C25.0393 13.7959 25.1829 13.8193 25.2942 13.8369C25.2825 13.8896 25.2708 13.96 25.2591 14.0479C25.2532 14.1357 25.2444 14.2236 25.2327 14.3115C25.221 14.3994 25.2122 14.4785 25.2063 14.5488C25.2005 14.6133 25.1975 14.6484 25.1975 14.6543V19.4795C25.1975 19.6611 25.1917 19.8721 25.18 20.1123C25.1741 20.3467 25.1624 20.584 25.1448 20.8242C25.1272 21.0645 25.1067 21.293 25.0833 21.5098C25.0657 21.7266 25.0452 21.8994 25.0218 22.0283L24.2923 22.1338C24.2747 22.04 24.26 21.9111 24.2483 21.7471C24.2366 21.5889 24.2249 21.416 24.2132 21.2285C24.2073 21.041 24.2014 20.8506 24.1956 20.6572C24.1956 20.4639 24.1956 20.2822 24.1956 20.1123V14.6191C24.1956 14.4492 24.1077 14.3115 23.9319 14.2061C23.762 14.0947 23.4837 13.9893 23.097 13.8896L23.2991 13.5029ZM6.5918 28.0254C6.65625 28.0254 6.71484 28.0254 6.76758 28.0254C6.82031 28.0195 6.86719 28.0137 6.9082 28.0078L6.76758 28.7285C6.5625 28.7168 6.29883 28.708 5.97656 28.7021C5.66016 28.6904 5.32031 28.6846 4.95703 28.6846V29.7217C5.20898 29.71 5.44043 29.7041 5.65137 29.7041C5.8623 29.7041 6.03223 29.7012 6.16113 29.6953C6.35449 29.6895 6.55664 29.6777 6.76758 29.6602C6.97852 29.6426 7.18652 29.625 7.3916 29.6074C7.60254 29.584 7.80469 29.5635 7.99805 29.5459C8.19141 29.5225 8.37012 29.499 8.53418 29.4756L8.39355 30.3018C8.27637 30.2959 8.13574 30.29 7.97168 30.2842C7.81348 30.2783 7.64062 30.2754 7.45312 30.2754C7.26562 30.2695 7.07227 30.2666 6.87305 30.2666C6.67383 30.2607 6.47754 30.2578 6.28418 30.2578C6.12598 30.2578 5.9209 30.2607 5.66895 30.2666C5.42285 30.2666 5.15332 30.2695 4.86035 30.2754C4.57324 30.2754 4.27441 30.2812 3.96387 30.293C3.65918 30.2988 3.36914 30.3076 3.09375 30.3193C2.81836 30.3252 2.56934 30.334 2.34668 30.3457C2.12988 30.3516 1.96582 30.3574 1.85449 30.3633C1.74902 30.3691 1.63184 30.3779 1.50293 30.3896C1.37988 30.4014 1.25391 30.4131 1.125 30.4248C0.996094 30.4365 0.867188 30.4512 0.738281 30.4688C0.615234 30.4805 0.503906 30.4922 0.404297 30.5039L0.0527344 29.6338C0.316406 29.6631 0.615234 29.6924 0.949219 29.7217C1.2832 29.7451 1.58203 29.7656 1.8457 29.7832C1.95117 29.7891 2.08008 29.792 2.23242 29.792C2.39062 29.792 2.56055 29.792 2.74219 29.792C2.92969 29.792 3.12891 29.7891 3.33984 29.7832C3.55078 29.7773 3.76758 29.7715 3.99023 29.7656V28.6934C3.80273 28.6934 3.62695 28.6963 3.46289 28.7021C3.29883 28.7021 3.14355 28.7021 2.99707 28.7021C2.98535 28.749 2.97656 28.793 2.9707 28.834C2.96484 28.875 2.95605 28.9131 2.94434 28.9482L2.24121 29.0625C2.21191 28.9453 2.18262 28.8047 2.15332 28.6406C2.12988 28.4707 2.10938 28.3096 2.0918 28.1572L1.95117 26.9355C1.93945 26.8418 1.9248 26.7656 1.90723 26.707C1.89551 26.6426 1.86914 26.5898 1.82812 26.5488C1.79297 26.5078 1.73438 26.4727 1.65234 26.4434C1.57617 26.4141 1.47363 26.3789 1.34473 26.3379L1.51172 25.9424C1.89844 25.9951 2.32031 26.0303 2.77734 26.0479C3.24023 26.0654 3.70605 26.0713 4.1748 26.0654C4.64941 26.0596 5.11523 26.0449 5.57227 26.0215C6.0293 25.998 6.45117 25.9688 6.83789 25.9336C6.82617 26.0742 6.80859 26.2324 6.78516 26.4082C6.76758 26.584 6.74707 26.7656 6.72363 26.9531C6.7002 27.1406 6.67676 27.3281 6.65332 27.5156C6.62988 27.6973 6.60938 27.8672 6.5918 28.0254ZM5.73926 26.6016C5.56348 26.5957 5.34668 26.5928 5.08887 26.5928C4.83691 26.5869 4.5791 26.5869 4.31543 26.5928C4.05176 26.5986 3.79688 26.6074 3.55078 26.6191C3.31055 26.625 3.11426 26.6338 2.96191 26.6455L3.04102 27.9814C3.04688 28.0283 3.0498 28.0664 3.0498 28.0957C3.0498 28.125 3.0498 28.1543 3.0498 28.1836C3.24316 28.1836 3.45117 28.1807 3.67383 28.1748C3.89648 28.1689 4.12207 28.1631 4.35059 28.1572C4.5791 28.1455 4.80762 28.1367 5.03613 28.1309C5.26465 28.1191 5.48438 28.1074 5.69531 28.0957L5.73926 26.6016ZM4.69336 31.8662C4.93945 32.0186 5.19727 32.168 5.4668 32.3145C5.74219 32.4609 6.01465 32.6016 6.28418 32.7363C6.55371 32.8652 6.81445 32.9854 7.06641 33.0967C7.32422 33.208 7.55859 33.3047 7.76953 33.3867L7.03125 34.0635C6.60352 33.7529 6.16113 33.4395 5.7041 33.123C5.24707 32.8125 4.80176 32.5195 4.36816 32.2441C4.16309 32.4551 3.9375 32.6572 3.69141 32.8506C3.45117 33.0381 3.20215 33.2139 2.94434 33.3779C2.69238 33.542 2.4375 33.6885 2.17969 33.8174C1.92188 33.9521 1.67285 34.0664 1.43262 34.1602L1.16895 33.835C1.49707 33.6885 1.80762 33.5098 2.10059 33.2988C2.39941 33.0938 2.67188 32.877 2.91797 32.6484C3.16406 32.4199 3.38086 32.1885 3.56836 31.9541C3.75586 31.7197 3.91113 31.5 4.03418 31.2949C4.0459 31.2715 4.0459 31.2334 4.03418 31.1807C4.02246 31.1279 4.00195 31.0869 3.97266 31.0576C3.91992 31.0225 3.83496 30.9756 3.71777 30.917C3.60059 30.8525 3.49512 30.7969 3.40137 30.75L3.68262 30.4424C3.79395 30.4775 3.91992 30.5156 4.06055 30.5566C4.20117 30.5977 4.34473 30.6416 4.49121 30.6885C4.64355 30.7295 4.79004 30.7734 4.93066 30.8203C5.07715 30.8613 5.20898 30.9023 5.32617 30.9434C5.24414 31.1016 5.15039 31.2598 5.04492 31.418C4.94531 31.5703 4.82812 31.7197 4.69336 31.8662ZM12.9459 32.209C13.0983 32.3379 13.2594 32.4697 13.4293 32.6045C13.6051 32.7334 13.7692 32.8535 13.9215 32.9648C14.1325 32.7246 14.32 32.4756 14.484 32.2178C14.6481 31.9541 14.7711 31.6992 14.8532 31.4531C14.8532 31.4473 14.8561 31.4355 14.862 31.418C14.8737 31.3945 14.8795 31.3682 14.8795 31.3389C14.8854 31.3096 14.8854 31.2803 14.8795 31.251C14.8737 31.2217 14.859 31.1982 14.8356 31.1807C14.8004 31.1514 14.7389 31.1133 14.651 31.0664C14.569 31.0137 14.4899 30.9639 14.4137 30.917L14.6071 30.6357L13.983 30.7148C13.9772 30.6621 13.9713 30.5947 13.9655 30.5127C13.9596 30.4248 13.9537 30.3281 13.9479 30.2227C13.942 30.1172 13.9362 30.0088 13.9303 29.8975C13.9303 29.7861 13.9303 29.6807 13.9303 29.5811V26.9531C13.9303 26.8711 13.9186 26.7979 13.8952 26.7334C13.8717 26.6689 13.8278 26.6104 13.7633 26.5576C13.6989 26.499 13.608 26.4463 13.4909 26.3994C13.3737 26.3525 13.2184 26.3057 13.025 26.2588L13.2272 25.8809C13.3678 25.8984 13.5172 25.9219 13.6754 25.9512C13.8395 25.9746 14.0006 26.0039 14.1588 26.0391C14.317 26.0684 14.4694 26.1006 14.6159 26.1357C14.7623 26.165 14.8883 26.1943 14.9938 26.2236C14.9821 26.2764 14.9704 26.3467 14.9586 26.4346C14.9469 26.5166 14.9352 26.6016 14.9235 26.6895C14.9118 26.7715 14.903 26.8447 14.8971 26.9092C14.8912 26.9736 14.8883 27.0088 14.8883 27.0146V28.6846C14.9879 28.6729 15.0963 28.6611 15.2135 28.6494C15.3366 28.6318 15.4567 28.6172 15.5739 28.6055V26.6191C15.5739 26.5312 15.5592 26.4551 15.5299 26.3906C15.5065 26.3203 15.4596 26.2559 15.3893 26.1973C15.3248 26.1387 15.2311 26.0859 15.108 26.0391C14.985 25.9863 14.8268 25.9365 14.6334 25.8896L14.7916 25.5029C14.9323 25.5205 15.0875 25.5469 15.2575 25.582C15.4332 25.6113 15.6061 25.6436 15.776 25.6787C15.9518 25.708 16.1188 25.7402 16.277 25.7754C16.4352 25.8047 16.57 25.8311 16.6813 25.8545C16.6637 25.9072 16.6491 25.9775 16.6373 26.0654C16.6256 26.1533 16.6139 26.2383 16.6022 26.3203C16.5963 26.4023 16.5905 26.4785 16.5846 26.5488C16.5787 26.6133 16.5758 26.6484 16.5758 26.6543V28.8164C16.5758 28.9688 16.5729 29.1299 16.567 29.2998C16.5612 29.4639 16.5495 29.6338 16.5319 29.8096C16.5202 29.9854 16.5026 30.1523 16.4791 30.3105C16.4557 30.4629 16.4293 30.5918 16.4 30.6973L15.6178 30.8027C15.6061 30.6035 15.5944 30.375 15.5827 30.1172C15.5768 29.8594 15.5739 29.6279 15.5739 29.4229V29.2207C15.4801 29.2266 15.3659 29.2324 15.2311 29.2383C15.1022 29.2383 14.9821 29.2441 14.8707 29.2559C14.8649 29.4551 14.8532 29.6719 14.8356 29.9062C14.818 30.1348 14.7799 30.3721 14.7213 30.6182L14.651 30.627C14.7272 30.6445 14.8327 30.668 14.9674 30.6973C15.1022 30.7266 15.2428 30.7588 15.3893 30.7939C15.5358 30.8291 15.6735 30.8672 15.8024 30.9082C15.9371 30.9434 16.0426 30.9756 16.1188 31.0049C16.0543 31.21 15.9752 31.4062 15.8815 31.5938C15.7877 31.7812 15.6852 31.9629 15.5739 32.1387C15.7028 32.2559 15.8434 32.3789 15.9957 32.5078C16.1539 32.6367 16.3092 32.7627 16.4616 32.8857C16.6198 33.0029 16.7721 33.1143 16.9186 33.2197C17.0709 33.3311 17.2086 33.4248 17.3317 33.501L16.5582 34.1074L15.2223 32.5869C14.9586 32.9209 14.6657 33.2197 14.3434 33.4834C14.0211 33.7471 13.6842 33.9814 13.3327 34.1865L12.9987 33.8877C13.1393 33.7822 13.277 33.6562 13.4118 33.5098L12.5856 32.6572C12.2985 32.9561 11.9762 33.2314 11.6188 33.4834C11.2672 33.7354 10.8981 33.9609 10.5114 34.1602L10.2213 33.8262C10.4381 33.6914 10.6461 33.5391 10.8454 33.3691C11.0504 33.1992 11.2409 33.0176 11.4166 32.8242C11.5924 32.6309 11.7477 32.4316 11.8825 32.2266C12.0172 32.0215 12.1256 31.8193 12.2077 31.6201C12.2194 31.5967 12.2311 31.5615 12.2428 31.5146C12.2545 31.4619 12.237 31.415 12.1901 31.374C12.1842 31.3682 12.1666 31.3564 12.1373 31.3389C12.108 31.3154 12.0729 31.2891 12.0319 31.2598C11.9909 31.2305 11.9469 31.2012 11.9 31.1719C11.8532 31.1426 11.8092 31.1191 11.7682 31.1016L11.9879 30.7939H11.9C11.6422 30.7939 11.4049 30.7588 11.1881 30.6885C10.9713 30.6123 10.7809 30.5098 10.6168 30.3809C10.4586 30.252 10.3327 30.1055 10.2389 29.9414C10.151 29.7715 10.1071 29.5898 10.1071 29.3965C10.1071 29.1973 10.151 29.0127 10.2389 28.8428C10.3327 28.6729 10.4586 28.5264 10.6168 28.4033C10.7809 28.2803 10.9713 28.1836 11.1881 28.1133C11.4049 28.043 11.6422 28.0078 11.9 28.0078C12.1754 28.0078 12.4215 28.0459 12.6383 28.1221C12.861 28.1982 13.0485 28.3008 13.2008 28.4297C13.359 28.5586 13.4791 28.708 13.5612 28.8779C13.6491 29.042 13.693 29.2148 13.693 29.3965C13.693 29.584 13.6491 29.7627 13.5612 29.9326C13.4791 30.0967 13.362 30.2432 13.2096 30.3721C13.0573 30.4951 12.8756 30.5947 12.6647 30.6709C12.4596 30.7471 12.234 30.7881 11.9879 30.7939C12.0582 30.8057 12.1608 30.8291 12.2955 30.8643C12.4303 30.8994 12.5709 30.9375 12.7174 30.9785C12.8639 31.0195 13.0045 31.0605 13.1393 31.1016C13.2799 31.1426 13.3912 31.1777 13.4733 31.207C13.4088 31.3828 13.3327 31.5557 13.2448 31.7256C13.1569 31.8896 13.0573 32.0508 12.9459 32.209ZM13.7194 27.7705C13.5495 27.7705 13.3356 27.7734 13.0778 27.7793C12.8258 27.7793 12.568 27.7852 12.3043 27.7969C12.0407 27.8027 11.7829 27.8115 11.5309 27.8232C11.2848 27.835 11.0739 27.8438 10.8981 27.8496C10.8278 27.8555 10.734 27.8643 10.6168 27.876C10.5055 27.8818 10.3883 27.8936 10.2653 27.9111C10.1422 27.9229 10.0221 27.9346 9.90492 27.9463C9.79359 27.958 9.70277 27.9697 9.63246 27.9814L9.26332 27.1641C9.33363 27.1816 9.43031 27.1992 9.55336 27.2168C9.67641 27.2344 9.80531 27.252 9.94008 27.2695C10.0807 27.2812 10.2125 27.293 10.3356 27.3047C10.4586 27.3164 10.5553 27.3223 10.6256 27.3223C10.8131 27.3223 11.0329 27.3164 11.2848 27.3047C11.5426 27.293 11.8121 27.2783 12.0934 27.2607C12.3805 27.2373 12.6735 27.208 12.9723 27.1729C13.277 27.1318 13.5641 27.085 13.8336 27.0322L13.7194 27.7705ZM11.1266 29.3613C11.1266 29.4902 11.1471 29.6104 11.1881 29.7217C11.2291 29.8271 11.2848 29.9209 11.3551 30.0029C11.4254 30.0791 11.5075 30.1406 11.6012 30.1875C11.695 30.2344 11.7946 30.2578 11.9 30.2578C11.9996 30.2578 12.0963 30.2373 12.1901 30.1963C12.2838 30.1494 12.3659 30.0879 12.4362 30.0117C12.5123 29.9297 12.5709 29.8359 12.612 29.7305C12.6588 29.6191 12.6823 29.4961 12.6823 29.3613C12.6823 29.2441 12.6618 29.1328 12.6207 29.0273C12.5797 28.916 12.5241 28.8223 12.4537 28.7461C12.3834 28.6641 12.2985 28.5996 12.1989 28.5527C12.1051 28.5059 12.0055 28.4824 11.9 28.4824C11.6832 28.4824 11.4987 28.5645 11.3463 28.7285C11.1998 28.8926 11.1266 29.1035 11.1266 29.3613ZM12.8844 26.918C12.6852 26.9121 12.4772 26.915 12.2604 26.9268C12.0436 26.9385 11.8561 26.9443 11.6979 26.9443C11.6569 26.9443 11.5983 26.9473 11.5221 26.9531C11.4459 26.959 11.361 26.9678 11.2672 26.9795C11.1735 26.9854 11.0797 26.9941 10.986 27.0059C10.8922 27.0176 10.8102 27.0293 10.7399 27.041L10.3092 26.2764C10.3795 26.2939 10.4733 26.3115 10.5905 26.3291C10.7135 26.3467 10.8366 26.3643 10.9596 26.3818C11.0885 26.3936 11.2086 26.4053 11.32 26.417C11.4371 26.4229 11.525 26.4258 11.5836 26.4258C11.6539 26.4258 11.7448 26.4229 11.8561 26.417C11.9733 26.4111 12.0963 26.4023 12.2252 26.3906C12.3541 26.373 12.486 26.3584 12.6207 26.3467C12.7614 26.3291 12.8932 26.3115 13.0162 26.2939L12.8844 26.918ZM24.0725 28.7197C23.885 28.7314 23.6858 28.749 23.4749 28.7725C23.2639 28.79 23.0589 28.8105 22.8596 28.834C22.6604 28.8516 22.4759 28.8691 22.3059 28.8867C22.136 28.9043 21.9983 28.9219 21.8929 28.9395L21.5413 28.1221C21.5999 28.1338 21.6819 28.1484 21.7874 28.166C21.8929 28.1777 22.0071 28.1924 22.1302 28.21C22.2532 28.2217 22.3733 28.2305 22.4905 28.2363C22.6136 28.2422 22.7161 28.2451 22.7981 28.2451C22.9505 28.2393 23.138 28.2363 23.3606 28.2363C23.5891 28.2305 23.8264 28.2217 24.0725 28.21V26.6191C24.0725 26.4492 23.9876 26.3115 23.8177 26.2061C23.6477 26.0947 23.3665 25.9893 22.9739 25.8896L23.1585 25.5029C23.2991 25.5205 23.4602 25.5439 23.6419 25.5732C23.8294 25.6025 24.0139 25.6348 24.1956 25.6699C24.3831 25.7051 24.5618 25.7373 24.7317 25.7666C24.9016 25.7959 25.0452 25.8193 25.1624 25.8369C25.1507 25.8896 25.1389 25.96 25.1272 26.0479C25.1155 26.1357 25.1038 26.2236 25.0921 26.3115C25.0862 26.3994 25.0804 26.4785 25.0745 26.5488C25.0686 26.6133 25.0657 26.6484 25.0657 26.6543V30.3105C25.0657 30.4453 25.0598 30.5918 25.0481 30.75C25.0423 30.9023 25.0305 31.0576 25.013 31.2158C25.0012 31.374 24.9837 31.5234 24.9602 31.6641C24.9427 31.8047 24.9251 31.9248 24.9075 32.0244L24.1429 32.1562C24.137 32.0859 24.1282 31.9863 24.1165 31.8574C24.1106 31.7227 24.1048 31.582 24.0989 31.4355C24.093 31.2832 24.0872 31.1338 24.0813 30.9873C24.0755 30.8408 24.0725 30.7148 24.0725 30.6094V28.7197ZM20.1614 29.792C20.1614 29.8799 20.1643 29.9385 20.1702 29.9678C20.1819 29.9971 20.2024 30.0088 20.2317 30.0029C20.4661 29.9854 20.721 29.959 20.9964 29.9238C21.2718 29.8828 21.553 29.8359 21.8401 29.7832C22.1331 29.7305 22.4231 29.6719 22.7102 29.6074C23.0032 29.543 23.2786 29.4756 23.5364 29.4053V29.8447C23.2786 29.9326 23.0061 30.0205 22.719 30.1084C22.4378 30.1904 22.1477 30.2695 21.8489 30.3457C21.5559 30.416 21.26 30.4834 20.9612 30.5479C20.6682 30.6064 20.3841 30.6562 20.1087 30.6973C19.7688 30.7441 19.5257 30.7031 19.3792 30.5742C19.2386 30.4395 19.1682 30.2314 19.1682 29.9502V27.9814C19.1682 27.876 19.1565 27.7881 19.1331 27.7178C19.1155 27.6416 19.0774 27.5771 19.0188 27.5244C18.9661 27.4717 18.887 27.4248 18.7815 27.3838C18.6761 27.3369 18.5354 27.293 18.3596 27.252L18.553 26.8564C18.887 26.9092 19.2532 26.9414 19.6516 26.9531C20.0559 26.9648 20.4632 26.9619 20.8733 26.9443C21.2835 26.9268 21.6761 26.8975 22.0511 26.8564C22.4319 26.8154 22.7659 26.7686 23.053 26.7158L22.8948 27.5156C22.3616 27.4922 21.8548 27.4863 21.3743 27.498C20.8997 27.5039 20.4954 27.5215 20.1614 27.5508V29.792ZM25.4788 33.7646C25.1331 33.7471 24.7757 33.7324 24.4065 33.7207C24.0432 33.7148 23.6858 33.7148 23.3343 33.7207C22.9827 33.7266 22.6458 33.7324 22.3235 33.7383C22.0012 33.75 21.7112 33.7646 21.4534 33.7822C21.2014 33.7998 21.0286 33.7529 20.9348 33.6416C20.8411 33.5361 20.7942 33.416 20.7942 33.2812V32.2002C20.7942 32.0771 20.7884 31.9805 20.7766 31.9102C20.7649 31.834 20.7327 31.7725 20.68 31.7256C20.6331 31.6729 20.5569 31.6289 20.4514 31.5938C20.3518 31.5586 20.2112 31.5176 20.0296 31.4707L20.179 31.0752C20.2669 31.0869 20.387 31.1016 20.5393 31.1191C20.6917 31.1367 20.847 31.1572 21.0052 31.1807C21.1692 31.2041 21.3274 31.2275 21.4798 31.251C21.6321 31.2686 21.7522 31.2861 21.8401 31.3037C21.8343 31.3389 21.8284 31.3857 21.8225 31.4443C21.8167 31.5029 21.8108 31.5674 21.805 31.6377C21.7991 31.7021 21.7932 31.7666 21.7874 31.8311C21.7815 31.8955 21.7786 31.9541 21.7786 32.0068V33C21.7786 33.0996 21.7874 33.1582 21.805 33.1758C21.8284 33.1934 21.8841 33.2051 21.972 33.2109C22.1887 33.2168 22.4524 33.2139 22.763 33.2021C23.0794 33.1904 23.4075 33.1729 23.7473 33.1494C24.0872 33.1318 24.4212 33.1055 24.7493 33.0703C25.0833 33.041 25.3762 33.0059 25.6282 32.9648L25.4788 33.7646Z" fill="#333333"/>
<path d="M124.811 4.11328C124.611 4.13086 124.409 4.15723 124.204 4.19238C124.005 4.22754 123.826 4.2627 123.668 4.29785L123.308 3.64746C123.272 3.6709 123.246 3.71484 123.229 3.7793C123.217 3.84375 123.202 3.91406 123.185 3.99023C123.167 4.06641 123.149 4.14258 123.132 4.21875C123.12 4.29492 123.111 4.35645 123.105 4.40332L123.07 6.03809C123.316 6.00293 123.548 5.96484 123.765 5.92383C123.981 5.88281 124.184 5.83301 124.371 5.77441V6.25781C124.09 6.32227 123.794 6.38672 123.483 6.45117C123.173 6.51562 122.862 6.57422 122.552 6.62695C122.247 6.67969 121.951 6.72949 121.664 6.77637C121.377 6.81738 121.113 6.84961 120.873 6.87305C120.82 6.87891 120.738 6.8877 120.627 6.89941C120.516 6.91113 120.393 6.92578 120.258 6.94336C120.123 6.95508 119.988 6.97266 119.854 6.99609C119.725 7.01367 119.613 7.03125 119.52 7.04883L119.036 6.16113C119.13 6.17871 119.244 6.19629 119.379 6.21387C119.514 6.22559 119.648 6.24023 119.783 6.25781C119.924 6.26953 120.059 6.27832 120.188 6.28418C120.322 6.29004 120.439 6.29004 120.539 6.28418L120.425 4.54395C120.413 4.47363 120.401 4.40918 120.39 4.35059C120.384 4.28613 120.366 4.23047 120.337 4.18359C120.308 4.13672 120.261 4.09863 120.196 4.06934C120.138 4.03418 120.053 4.01074 119.941 3.99902L120.047 3.67383C120.129 3.67383 120.226 3.67676 120.337 3.68262C120.448 3.68262 120.565 3.68555 120.688 3.69141C120.812 3.69141 120.932 3.69727 121.049 3.70898C121.172 3.71484 121.283 3.72363 121.383 3.73535C121.371 3.78809 121.362 3.85254 121.356 3.92871C121.351 3.99902 121.345 4.07227 121.339 4.14844C121.339 4.21875 121.339 4.29199 121.339 4.36816C121.345 4.43848 121.351 4.5 121.356 4.55273L121.436 6.21387C121.553 6.20215 121.673 6.19336 121.796 6.1875C121.919 6.17578 122.045 6.16113 122.174 6.14355L122.183 4.35059C122.188 4.2627 122.188 4.18945 122.183 4.13086C122.177 4.06641 122.159 4.0166 122.13 3.98145C122.101 3.94043 122.054 3.9082 121.989 3.88477C121.931 3.86133 121.846 3.84082 121.734 3.82324L121.849 3.49805C122.024 3.50977 122.224 3.52441 122.446 3.54199C122.669 3.55957 122.941 3.5918 123.264 3.63867V3.55957C123.486 3.60059 123.694 3.62695 123.888 3.63867C124.087 3.64453 124.248 3.64453 124.371 3.63867C124.418 3.64453 124.479 3.64453 124.556 3.63867C124.632 3.62695 124.717 3.61816 124.811 3.6123V2.61914C124.811 2.44922 124.723 2.31152 124.547 2.20605C124.377 2.09473 124.099 1.98926 123.712 1.88965L123.914 1.50293C124.049 1.52051 124.207 1.54395 124.389 1.57324C124.57 1.60254 124.755 1.63477 124.942 1.66992C125.13 1.70508 125.309 1.7373 125.479 1.7666C125.654 1.7959 125.801 1.81934 125.918 1.83691C125.9 1.88965 125.886 1.95996 125.874 2.04785C125.862 2.13574 125.851 2.22363 125.839 2.31152C125.827 2.39941 125.818 2.47852 125.812 2.54883C125.807 2.61328 125.804 2.64844 125.804 2.6543V6.31055C125.804 6.44531 125.798 6.5918 125.786 6.75C125.78 6.90234 125.769 7.05762 125.751 7.21582C125.739 7.37402 125.722 7.52344 125.698 7.66406C125.681 7.80469 125.663 7.9248 125.646 8.02441L124.881 8.15625C124.869 8.08594 124.86 7.98633 124.854 7.85742C124.849 7.72266 124.84 7.58203 124.828 7.43555C124.822 7.2832 124.816 7.13379 124.811 6.9873C124.811 6.84082 124.811 6.71484 124.811 6.60938V5.57227C124.605 5.58984 124.389 5.61328 124.16 5.64258C123.932 5.66602 123.735 5.70117 123.571 5.74805L123.167 5.00098C123.396 5.03613 123.606 5.0625 123.8 5.08008C123.993 5.0918 124.163 5.09473 124.31 5.08887C124.362 5.08301 124.433 5.08008 124.521 5.08008C124.614 5.07422 124.711 5.06836 124.811 5.0625V4.11328ZM126.234 9.76465C125.883 9.74707 125.522 9.73242 125.153 9.7207C124.784 9.71484 124.424 9.71484 124.072 9.7207C123.721 9.72656 123.384 9.73242 123.062 9.73828C122.739 9.75 122.449 9.76465 122.191 9.78223C121.945 9.7998 121.772 9.75293 121.673 9.6416C121.579 9.53613 121.532 9.41602 121.532 9.28125V8.32324C121.532 8.2002 121.526 8.10352 121.515 8.0332C121.503 7.95703 121.471 7.89551 121.418 7.84863C121.365 7.7959 121.286 7.75195 121.181 7.7168C121.075 7.68164 120.929 7.64062 120.741 7.59375L120.935 7.18945C121.022 7.20117 121.14 7.21875 121.286 7.24219C121.438 7.25977 121.597 7.28027 121.761 7.30371C121.925 7.32715 122.083 7.35059 122.235 7.37402C122.388 7.39746 122.508 7.41504 122.596 7.42676C122.584 7.49707 122.566 7.6084 122.543 7.76074C122.525 7.90723 122.517 8.0332 122.517 8.13867V9C122.517 9.09961 122.528 9.1582 122.552 9.17578C122.575 9.19336 122.628 9.20508 122.71 9.21094C122.927 9.2168 123.19 9.21387 123.501 9.20215C123.817 9.19043 124.146 9.17285 124.485 9.14941C124.825 9.13184 125.159 9.10547 125.487 9.07031C125.815 9.04102 126.105 9.00586 126.357 8.96484L126.234 9.76465ZM123.879 3.34863C123.65 3.34277 123.398 3.34277 123.123 3.34863C122.848 3.34863 122.575 3.35742 122.306 3.375C122.036 3.38672 121.781 3.40137 121.541 3.41895C121.301 3.43066 121.099 3.43945 120.935 3.44531C120.87 3.45117 120.776 3.45996 120.653 3.47168C120.536 3.47754 120.41 3.48926 120.275 3.50684C120.146 3.51855 120.021 3.53027 119.897 3.54199C119.774 3.55371 119.675 3.56543 119.599 3.57715L119.212 2.70703C119.3 2.72461 119.414 2.74512 119.555 2.76855C119.695 2.79199 119.839 2.8125 119.985 2.83008C120.138 2.84766 120.284 2.8623 120.425 2.87402C120.571 2.88574 120.688 2.8916 120.776 2.8916C120.958 2.8916 121.172 2.88281 121.418 2.86523C121.664 2.84766 121.931 2.82422 122.218 2.79492C122.505 2.76562 122.807 2.7334 123.123 2.69824C123.439 2.65723 123.759 2.61621 124.081 2.5752L123.879 3.34863ZM131.464 3.41895C131.258 3.40723 131.024 3.41309 130.76 3.43652C130.503 3.4541 130.265 3.47168 130.048 3.48926C129.984 3.49512 129.896 3.50391 129.785 3.51562C129.679 3.52148 129.565 3.53027 129.442 3.54199C129.319 3.54785 129.193 3.55957 129.064 3.57715C128.941 3.58887 128.827 3.60352 128.721 3.62109L128.22 2.82129C128.291 2.83301 128.387 2.84766 128.51 2.86523C128.639 2.88281 128.774 2.90039 128.915 2.91797C129.061 2.92969 129.202 2.94141 129.337 2.95312C129.477 2.96484 129.594 2.9707 129.688 2.9707C129.846 2.9707 130.043 2.96777 130.277 2.96191C130.517 2.95605 130.769 2.9502 131.033 2.94434C131.302 2.93262 131.575 2.91797 131.85 2.90039C132.131 2.88281 132.392 2.8623 132.632 2.83887C132.621 2.87402 132.606 2.92383 132.589 2.98828C132.577 3.05273 132.562 3.12305 132.545 3.19922C132.527 3.26953 132.509 3.33984 132.492 3.41016C132.48 3.47461 132.471 3.52441 132.465 3.55957L132.325 4.86035C132.372 4.86035 132.419 4.86035 132.465 4.86035C132.518 4.85449 132.571 4.84863 132.624 4.84277L132.536 5.48438C131.891 5.45508 131.355 5.44922 130.927 5.4668C130.506 5.47852 130.142 5.49609 129.838 5.51953C129.838 5.56641 129.835 5.60742 129.829 5.64258C129.823 5.67188 129.82 5.70996 129.82 5.75684V6.94336C129.82 7.0957 129.867 7.17188 129.961 7.17188C130.166 7.1543 130.415 7.12793 130.708 7.09277C131.001 7.05176 131.317 7.00195 131.657 6.94336C131.997 6.87891 132.345 6.80566 132.703 6.72363C133.066 6.6416 133.421 6.54785 133.766 6.44238V2.61914C133.766 2.44922 133.678 2.31152 133.503 2.20605C133.333 2.09473 133.054 1.98926 132.668 1.88965L132.87 1.50293C133.005 1.52051 133.163 1.54395 133.344 1.57324C133.526 1.60254 133.711 1.63477 133.898 1.66992C134.086 1.70508 134.264 1.7373 134.434 1.7666C134.61 1.7959 134.754 1.81934 134.865 1.83691C134.853 1.88965 134.841 1.95996 134.83 2.04785C134.818 2.13574 134.806 2.22363 134.795 2.31152C134.783 2.39941 134.774 2.47852 134.768 2.54883C134.762 2.61328 134.759 2.64844 134.759 2.6543V7.47949C134.759 7.66113 134.754 7.87207 134.742 8.1123C134.736 8.34668 134.724 8.58398 134.707 8.82422C134.695 9.06445 134.677 9.29297 134.654 9.50977C134.636 9.72656 134.616 9.89941 134.592 10.0283L133.845 10.1338C133.834 10.04 133.822 9.91113 133.81 9.74707C133.804 9.58887 133.796 9.41602 133.784 9.22852C133.778 9.04102 133.772 8.85059 133.766 8.65723C133.766 8.46387 133.766 8.28223 133.766 8.1123V6.88184C133.467 6.98145 133.133 7.08398 132.764 7.18945C132.401 7.28906 132.038 7.38281 131.674 7.4707C131.311 7.55859 130.965 7.63477 130.637 7.69922C130.309 7.76367 130.031 7.80469 129.802 7.82227C129.451 7.85742 129.202 7.81055 129.055 7.68164C128.909 7.54688 128.836 7.33594 128.836 7.04883V5.87988C128.836 5.78027 128.83 5.69824 128.818 5.63379C128.806 5.56934 128.777 5.51367 128.73 5.4668C128.689 5.41992 128.625 5.37891 128.537 5.34375C128.455 5.30859 128.343 5.27051 128.203 5.22949L128.396 4.89551C128.929 4.94824 129.448 4.97754 129.952 4.9834C130.462 4.9834 130.945 4.96875 131.402 4.93945L131.464 3.41895ZM143.214 6.17871C143.214 6.30762 143.208 6.45117 143.197 6.60938C143.191 6.76758 143.182 6.92578 143.17 7.08398C143.158 7.24219 143.144 7.39453 143.126 7.54102C143.115 7.68164 143.1 7.79883 143.082 7.89258L142.291 8.01562C142.285 7.94531 142.277 7.84863 142.265 7.72559C142.259 7.59668 142.253 7.45898 142.247 7.3125C142.241 7.16016 142.236 7.01074 142.23 6.86426C142.224 6.71191 142.221 6.58008 142.221 6.46875V2.61914C142.221 2.44922 142.139 2.31152 141.975 2.20605C141.811 2.09473 141.535 1.98926 141.149 1.88965L141.324 1.50293C141.465 1.52051 141.629 1.54395 141.817 1.57324C142.004 1.60254 142.192 1.63477 142.379 1.66992C142.567 1.70508 142.742 1.7373 142.907 1.7666C143.076 1.7959 143.217 1.81934 143.328 1.83691C143.311 1.88965 143.296 1.95996 143.284 2.04785C143.273 2.13574 143.261 2.22363 143.249 2.31152C143.238 2.39941 143.229 2.47852 143.223 2.54883C143.217 2.61328 143.214 2.64844 143.214 2.6543V4.80762C143.343 4.7959 143.484 4.78418 143.636 4.77246C143.788 4.75488 143.941 4.7373 144.093 4.71973C144.245 4.69629 144.392 4.67285 144.532 4.64941C144.679 4.62598 144.805 4.60254 144.91 4.5791L144.84 5.37891C144.752 5.37891 144.641 5.37891 144.506 5.37891C144.377 5.37891 144.237 5.37891 144.084 5.37891C143.938 5.37891 143.788 5.37891 143.636 5.37891C143.484 5.37891 143.343 5.37891 143.214 5.37891V6.17871ZM143.759 9.71191C143.396 9.7002 143.027 9.69434 142.652 9.69434C142.277 9.69434 141.91 9.69727 141.553 9.70312C141.196 9.71484 140.853 9.72656 140.525 9.73828C140.202 9.75586 139.912 9.77051 139.655 9.78223C139.426 9.79395 139.256 9.74707 139.145 9.6416C139.039 9.53613 138.987 9.41602 138.987 9.28125V8.3584C138.987 8.23535 138.981 8.13867 138.969 8.06836C138.957 7.99219 138.925 7.93066 138.872 7.88379C138.825 7.83105 138.752 7.78711 138.653 7.75195C138.553 7.7168 138.412 7.67578 138.231 7.62891L138.424 7.22461C138.506 7.24219 138.62 7.2627 138.767 7.28613C138.913 7.30371 139.066 7.32422 139.224 7.34766C139.388 7.36523 139.543 7.38574 139.69 7.40918C139.842 7.42676 139.965 7.44434 140.059 7.46191C140.053 7.49707 140.047 7.54395 140.041 7.60254C140.035 7.66113 140.03 7.72559 140.024 7.7959C140.018 7.86035 140.012 7.92773 140.006 7.99805C140 8.0625 139.997 8.12109 139.997 8.17383V9C139.997 9.09961 140.006 9.1582 140.024 9.17578C140.041 9.19336 140.1 9.20508 140.199 9.21094C140.416 9.21094 140.683 9.20215 140.999 9.18457C141.322 9.17285 141.653 9.15234 141.992 9.12305C142.338 9.09375 142.678 9.06152 143.012 9.02637C143.346 8.99707 143.636 8.96484 143.882 8.92969L143.759 9.71191ZM141.228 5.56348C141.228 5.75684 141.178 5.94434 141.078 6.12598C140.985 6.30176 140.853 6.45996 140.683 6.60059C140.513 6.73535 140.311 6.84375 140.076 6.92578C139.842 7.00195 139.59 7.04004 139.321 7.04004C139.051 7.04004 138.799 6.99902 138.565 6.91699C138.336 6.83496 138.137 6.72656 137.967 6.5918C137.797 6.45703 137.662 6.30176 137.563 6.12598C137.469 5.94434 137.422 5.75684 137.422 5.56348C137.422 5.35254 137.472 5.15625 137.572 4.97461C137.671 4.79297 137.806 4.6377 137.976 4.50879C138.146 4.37988 138.345 4.28027 138.574 4.20996C138.808 4.13379 139.057 4.0957 139.321 4.0957C139.602 4.0957 139.86 4.13672 140.094 4.21875C140.328 4.29492 140.528 4.40332 140.692 4.54395C140.862 4.67871 140.993 4.83398 141.087 5.00977C141.181 5.18555 141.228 5.37012 141.228 5.56348ZM138.459 5.52832C138.459 5.66309 138.483 5.78906 138.53 5.90625C138.576 6.01758 138.638 6.11719 138.714 6.20508C138.796 6.28711 138.89 6.35449 138.995 6.40723C139.101 6.4541 139.212 6.47754 139.329 6.47754C139.441 6.47754 139.546 6.4541 139.646 6.40723C139.751 6.36035 139.845 6.2959 139.927 6.21387C140.009 6.12598 140.074 6.02637 140.12 5.91504C140.173 5.79785 140.199 5.66895 140.199 5.52832C140.199 5.40527 140.176 5.28516 140.129 5.16797C140.082 5.05078 140.018 4.94824 139.936 4.86035C139.854 4.77246 139.76 4.70215 139.655 4.64941C139.549 4.59668 139.441 4.57031 139.329 4.57031C139.212 4.57031 139.101 4.59375 138.995 4.64062C138.89 4.6875 138.796 4.75488 138.714 4.84277C138.638 4.9248 138.576 5.02441 138.53 5.1416C138.483 5.25879 138.459 5.3877 138.459 5.52832ZM141.825 3.76172C141.697 3.75586 141.532 3.75586 141.333 3.76172C141.14 3.76172 140.929 3.76465 140.7 3.77051C140.472 3.77051 140.235 3.77344 139.989 3.7793C139.748 3.78516 139.517 3.79395 139.294 3.80566C139.072 3.81152 138.864 3.81738 138.67 3.82324C138.483 3.8291 138.327 3.83496 138.204 3.84082C138.128 3.84082 138.029 3.84668 137.906 3.8584C137.788 3.87012 137.665 3.88184 137.536 3.89355C137.413 3.90527 137.293 3.91992 137.176 3.9375C137.059 3.94922 136.965 3.96094 136.895 3.97266L136.517 3.12891C136.587 3.14648 136.684 3.16699 136.807 3.19043C136.936 3.20801 137.068 3.22559 137.202 3.24316C137.343 3.26074 137.478 3.27539 137.607 3.28711C137.736 3.29883 137.838 3.30469 137.914 3.30469C138.108 3.29883 138.368 3.29297 138.697 3.28711C139.031 3.27539 139.388 3.25781 139.769 3.23438C140.15 3.21094 140.533 3.18164 140.92 3.14648C141.307 3.11133 141.653 3.06738 141.957 3.01465L141.825 3.76172ZM140.525 2.76855C140.431 2.76855 140.323 2.76855 140.199 2.76855C140.082 2.76855 139.959 2.77148 139.83 2.77734C139.707 2.77734 139.587 2.78027 139.47 2.78613C139.359 2.78613 139.265 2.78613 139.189 2.78613C139.148 2.78613 139.086 2.78906 139.004 2.79492C138.922 2.80078 138.831 2.80957 138.732 2.82129C138.632 2.82715 138.532 2.83594 138.433 2.84766C138.333 2.85352 138.245 2.8623 138.169 2.87402L137.739 2.11816C137.809 2.13574 137.906 2.15332 138.029 2.1709C138.152 2.18848 138.278 2.20605 138.407 2.22363C138.541 2.23535 138.667 2.24707 138.784 2.25879C138.907 2.26465 139.001 2.26758 139.066 2.26758C139.136 2.26758 139.236 2.26465 139.365 2.25879C139.499 2.24707 139.643 2.23535 139.795 2.22363C139.948 2.20605 140.103 2.18848 140.261 2.1709C140.419 2.15332 140.563 2.13574 140.692 2.11816L140.525 2.76855ZM123.457 17.8535C123.709 17.8418 123.94 17.8359 124.151 17.8359C124.362 17.8301 124.532 17.8242 124.661 17.8184C124.854 17.8125 125.057 17.8008 125.268 17.7832C125.479 17.7656 125.687 17.748 125.892 17.7305C126.103 17.707 126.305 17.6836 126.498 17.6602C126.691 17.6367 126.87 17.6133 127.034 17.5898L126.894 18.416C126.776 18.4102 126.636 18.4043 126.472 18.3984C126.313 18.3926 126.141 18.3867 125.953 18.3809C125.766 18.375 125.572 18.3691 125.373 18.3633C125.174 18.3574 124.978 18.3545 124.784 18.3545C124.626 18.3545 124.421 18.3574 124.169 18.3633C123.923 18.3633 123.653 18.3662 123.36 18.3721C123.073 18.3779 122.774 18.3867 122.464 18.3984C122.159 18.4043 121.869 18.4131 121.594 18.4248C121.318 18.4365 121.069 18.4482 120.847 18.46C120.63 18.4658 120.466 18.4717 120.354 18.4775C120.249 18.4834 120.132 18.4922 120.003 18.5039C119.88 18.5156 119.754 18.5273 119.625 18.5391C119.496 18.5508 119.367 18.5654 119.238 18.583C119.115 18.6006 119.004 18.6182 118.904 18.6357L118.553 17.748C118.816 17.7832 119.115 17.8154 119.449 17.8447C119.783 17.8682 120.082 17.8857 120.346 17.8975C120.451 17.9033 120.58 17.9062 120.732 17.9062C120.891 17.9062 121.061 17.9062 121.242 17.9062C121.43 17.9062 121.629 17.9062 121.84 17.9062C122.051 17.9004 122.268 17.8975 122.49 17.8975V16.8604C122.227 16.8721 121.98 16.8809 121.752 16.8867C121.523 16.8926 121.315 16.9014 121.128 16.9131C120.899 16.9307 120.727 16.8779 120.609 16.7549C120.492 16.6318 120.434 16.4854 120.434 16.3154V15.085C120.434 14.9736 120.425 14.8828 120.407 14.8125C120.396 14.7363 120.363 14.6748 120.311 14.6279C120.258 14.5752 120.182 14.5283 120.082 14.4873C119.982 14.4463 119.845 14.4023 119.669 14.3555L119.871 13.9688C120.123 14.0156 120.41 14.0508 120.732 14.0742C121.061 14.0918 121.403 14.1035 121.761 14.1094C122.124 14.1152 122.487 14.1152 122.851 14.1094C123.22 14.0977 123.571 14.083 123.905 14.0654C124.239 14.042 124.541 14.0186 124.811 13.9951C125.086 13.9658 125.309 13.9365 125.479 13.9072L125.329 14.707C124.62 14.6719 123.923 14.6572 123.237 14.6631C122.552 14.6631 121.951 14.6777 121.436 14.707V16.1396C121.436 16.2451 121.444 16.3066 121.462 16.3242C121.479 16.3418 121.541 16.3535 121.646 16.3594C121.863 16.3652 122.136 16.3623 122.464 16.3506C122.798 16.333 123.146 16.3125 123.51 16.2891C123.873 16.2598 124.233 16.2305 124.591 16.2012C124.948 16.166 125.265 16.1309 125.54 16.0957L125.373 16.8867C125.074 16.875 124.764 16.8662 124.441 16.8604C124.119 16.8545 123.791 16.8516 123.457 16.8516V17.8535ZM121.286 19.2773C121.585 19.2773 121.931 19.2715 122.323 19.2598C122.716 19.2422 123.108 19.2246 123.501 19.207C123.899 19.1836 124.271 19.1602 124.617 19.1367C124.969 19.1133 125.256 19.0898 125.479 19.0664C125.461 19.2188 125.446 19.3477 125.435 19.4531C125.429 19.5586 125.426 19.6611 125.426 19.7607V20.6572C125.426 20.8271 125.417 21.0146 125.399 21.2197C125.382 21.4307 125.338 21.6621 125.268 21.9141L124.503 22.0547C124.491 21.9844 124.479 21.8965 124.468 21.791C124.462 21.6855 124.456 21.5742 124.45 21.457C124.444 21.3457 124.438 21.2344 124.433 21.123C124.427 21.0176 124.424 20.9297 124.424 20.8594V19.708C124.201 19.7021 123.967 19.7021 123.721 19.708C123.475 19.7139 123.223 19.7256 122.965 19.7432C122.713 19.7549 122.461 19.7725 122.209 19.7959C121.963 19.8135 121.729 19.8281 121.506 19.8398C121.318 19.8516 121.128 19.8721 120.935 19.9014C120.741 19.9307 120.548 19.96 120.354 19.9893L119.959 19.1455C120.047 19.1572 120.146 19.1719 120.258 19.1895C120.375 19.2012 120.495 19.2158 120.618 19.2334C120.741 19.2451 120.861 19.2568 120.979 19.2686C121.096 19.2744 121.198 19.2773 121.286 19.2773ZM130.822 16.9307C131.127 17.2412 131.472 17.5635 131.859 17.8975C132.252 18.2314 132.638 18.5391 133.019 18.8203L132.281 19.5498C132.017 19.2334 131.727 18.8877 131.411 18.5127C131.1 18.1377 130.793 17.7715 130.488 17.4141C130.189 17.8242 129.843 18.2197 129.451 18.6006C129.058 18.9814 128.607 19.3477 128.097 19.6992L127.79 19.418C128.13 19.1484 128.44 18.8525 128.721 18.5303C129.008 18.2021 129.263 17.8652 129.486 17.5195C129.709 17.168 129.899 16.8164 130.057 16.4648C130.215 16.1133 130.339 15.7793 130.426 15.4629C130.444 15.4102 130.453 15.3691 130.453 15.3398C130.453 15.3105 130.45 15.2871 130.444 15.2695C130.438 15.252 130.432 15.2373 130.426 15.2256C130.421 15.2139 130.418 15.1992 130.418 15.1816C130.388 15.123 130.318 15.0615 130.207 14.9971C130.101 14.9326 129.984 14.877 129.855 14.8301L130.04 14.5049C130.157 14.5342 130.289 14.5723 130.435 14.6191C130.588 14.6602 130.74 14.7041 130.892 14.751C131.05 14.7979 131.203 14.8447 131.349 14.8916C131.496 14.9326 131.628 14.9678 131.745 14.9971C131.51 15.6943 131.203 16.3389 130.822 16.9307ZM133.766 17.1064C133.585 17.1182 133.4 17.1299 133.213 17.1416C133.031 17.1533 132.855 17.168 132.685 17.1855C132.515 17.2031 132.36 17.2207 132.219 17.2383C132.079 17.2559 131.962 17.2734 131.868 17.291L131.472 16.5088C131.531 16.5146 131.613 16.5234 131.718 16.5352C131.83 16.5469 131.947 16.5586 132.07 16.5703C132.193 16.5762 132.316 16.582 132.439 16.5879C132.562 16.5879 132.668 16.5879 132.756 16.5879C132.884 16.582 133.034 16.5791 133.204 16.5791C133.38 16.5791 133.567 16.5732 133.766 16.5615V14.6191C133.766 14.4492 133.678 14.3115 133.503 14.2061C133.333 14.0947 133.054 13.9893 132.668 13.8896L132.87 13.5029C133.005 13.5205 133.163 13.5439 133.344 13.5732C133.526 13.6025 133.711 13.6348 133.898 13.6699C134.086 13.7051 134.264 13.7373 134.434 13.7666C134.61 13.7959 134.754 13.8193 134.865 13.8369C134.853 13.8896 134.841 13.96 134.83 14.0479C134.818 14.1357 134.806 14.2236 134.795 14.3115C134.789 14.3994 134.78 14.4785 134.768 14.5488C134.762 14.6133 134.759 14.6484 134.759 14.6543V19.4795C134.759 19.6611 134.754 19.8721 134.742 20.1123C134.736 20.3467 134.724 20.584 134.707 20.8242C134.695 21.0645 134.677 21.293 134.654 21.5098C134.636 21.7266 134.616 21.8994 134.592 22.0283L133.845 22.1338C133.834 22.04 133.822 21.9111 133.81 21.7471C133.804 21.5889 133.796 21.416 133.784 21.2285C133.778 21.041 133.772 20.8506 133.766 20.6572C133.766 20.4639 133.766 20.2822 133.766 20.1123V17.1064ZM140.296 14.7686C140.536 14.8154 140.756 14.8916 140.955 14.9971C141.16 15.0967 141.336 15.2197 141.483 15.3662C141.629 15.5127 141.743 15.6797 141.825 15.8672C141.907 16.0488 141.949 16.2393 141.949 16.4385C141.949 16.6729 141.893 16.8926 141.782 17.0977C141.676 17.3027 141.527 17.4814 141.333 17.6338C141.14 17.7861 140.911 17.9062 140.648 17.9941C140.384 18.082 140.097 18.126 139.786 18.126C139.488 18.126 139.209 18.082 138.951 17.9941C138.694 17.9062 138.471 17.7861 138.283 17.6338C138.096 17.4814 137.949 17.3027 137.844 17.0977C137.739 16.8926 137.686 16.6729 137.686 16.4385C137.686 16.2275 137.727 16.0254 137.809 15.832C137.897 15.6387 138.02 15.4688 138.178 15.3223C138.336 15.1699 138.524 15.0439 138.741 14.9443C138.957 14.8447 139.198 14.7803 139.461 14.751C139.444 14.6689 139.411 14.6074 139.365 14.5664C139.318 14.5254 139.227 14.4814 139.092 14.4346L139.268 14.1094C139.326 14.1211 139.406 14.1387 139.505 14.1621C139.611 14.1797 139.719 14.2002 139.83 14.2236C139.948 14.2471 140.059 14.2705 140.164 14.2939C140.276 14.3115 140.366 14.3262 140.437 14.3379C140.419 14.3965 140.396 14.4639 140.366 14.54C140.337 14.6104 140.314 14.6865 140.296 14.7686ZM140.894 16.4033C140.894 16.2393 140.865 16.0869 140.806 15.9463C140.747 15.7998 140.668 15.6738 140.569 15.5684C140.469 15.4629 140.352 15.3809 140.217 15.3223C140.088 15.2637 139.95 15.2344 139.804 15.2344C139.663 15.2344 139.526 15.2637 139.391 15.3223C139.262 15.3809 139.145 15.4629 139.039 15.5684C138.94 15.6738 138.861 15.7998 138.802 15.9463C138.743 16.0869 138.714 16.2393 138.714 16.4033C138.714 16.5732 138.743 16.7285 138.802 16.8691C138.861 17.0039 138.94 17.1211 139.039 17.2207C139.145 17.3203 139.262 17.3994 139.391 17.458C139.526 17.5107 139.663 17.5371 139.804 17.5371C139.95 17.5371 140.091 17.5107 140.226 17.458C140.361 17.3994 140.475 17.3203 140.569 17.2207C140.668 17.1211 140.747 17.0039 140.806 16.8691C140.865 16.7285 140.894 16.5732 140.894 16.4033ZM142.845 19.1807C142.499 19.251 142.136 19.3213 141.755 19.3916C141.374 19.4619 140.999 19.5264 140.63 19.585C140.261 19.6436 139.907 19.6934 139.567 19.7344C139.233 19.7754 138.931 19.8047 138.661 19.8223C138.609 19.8281 138.524 19.8369 138.407 19.8486C138.295 19.8604 138.169 19.875 138.029 19.8926C137.894 19.9043 137.756 19.9189 137.616 19.9365C137.481 19.9541 137.364 19.9717 137.264 19.9893L136.745 19.1191C136.839 19.1309 136.956 19.1455 137.097 19.1631C137.243 19.1748 137.39 19.1865 137.536 19.1982C137.689 19.2041 137.832 19.21 137.967 19.2158C138.102 19.2158 138.204 19.2158 138.275 19.2158C138.673 19.1982 139.074 19.1748 139.479 19.1455C139.883 19.1162 140.282 19.0811 140.674 19.04C141.067 18.9932 141.445 18.9434 141.808 18.8906C142.177 18.832 142.523 18.7676 142.845 18.6973V14.6191C142.845 14.4492 142.76 14.3115 142.59 14.2061C142.42 14.0947 142.139 13.9893 141.746 13.8896L141.94 13.5029C142.08 13.5205 142.241 13.5439 142.423 13.5732C142.605 13.6025 142.786 13.6348 142.968 13.6699C143.156 13.7051 143.334 13.7373 143.504 13.7666C143.674 13.7959 143.818 13.8193 143.935 13.8369C143.923 13.8896 143.911 13.96 143.9 14.0479C143.888 14.1357 143.876 14.2236 143.865 14.3115C143.859 14.3994 143.853 14.4785 143.847 14.5488C143.841 14.6133 143.838 14.6484 143.838 14.6543V19.4795C143.838 19.6611 143.832 19.8721 143.821 20.1123C143.815 20.3467 143.803 20.584 143.785 20.8242C143.768 21.0645 143.747 21.293 143.724 21.5098C143.706 21.7266 143.686 21.8994 143.662 22.0283L142.933 22.1338C142.921 22.04 142.909 21.9111 142.898 21.7471C142.892 21.5889 142.883 21.416 142.871 21.2285C142.866 21.041 142.86 20.8506 142.854 20.6572C142.848 20.4639 142.845 20.2822 142.845 20.1123V19.1807ZM122.007 28.834C122.329 29.1562 122.687 29.4961 123.079 29.8535C123.478 30.2051 123.87 30.5244 124.257 30.8115L123.527 31.541C123.258 31.2188 122.962 30.8613 122.64 30.4688C122.323 30.0703 122.007 29.6924 121.69 29.335C121.392 29.7686 121.04 30.1758 120.636 30.5566C120.237 30.9375 119.766 31.3184 119.221 31.6992L118.913 31.418C119.253 31.1484 119.563 30.8525 119.845 30.5303C120.132 30.2021 120.387 29.8652 120.609 29.5195C120.832 29.168 121.022 28.8164 121.181 28.4648C121.339 28.1133 121.462 27.7793 121.55 27.4629C121.567 27.4102 121.576 27.3691 121.576 27.3398C121.576 27.3105 121.573 27.2871 121.567 27.2695C121.567 27.252 121.564 27.2373 121.559 27.2256C121.553 27.2139 121.55 27.1992 121.55 27.1816C121.521 27.123 121.45 27.0615 121.339 26.9971C121.228 26.9326 121.107 26.877 120.979 26.8301L121.163 26.5049C121.28 26.5342 121.412 26.5723 121.559 26.6191C121.711 26.6602 121.863 26.7041 122.016 26.751C122.174 26.7979 122.326 26.8447 122.473 26.8916C122.619 26.9326 122.751 26.9678 122.868 26.9971C122.751 27.3428 122.622 27.665 122.481 27.9639C122.347 28.2627 122.188 28.5527 122.007 28.834ZM123.914 25.5029C124.049 25.5205 124.207 25.5439 124.389 25.5732C124.57 25.6025 124.755 25.6348 124.942 25.6699C125.13 25.7051 125.309 25.7373 125.479 25.7666C125.654 25.7959 125.801 25.8193 125.918 25.8369C125.9 25.8896 125.886 25.96 125.874 26.0479C125.862 26.1357 125.851 26.2236 125.839 26.3115C125.827 26.3994 125.818 26.4785 125.812 26.5488C125.807 26.6133 125.804 26.6484 125.804 26.6543V31.4795C125.804 31.6611 125.798 31.8721 125.786 32.1123C125.78 32.3467 125.769 32.584 125.751 32.8242C125.739 33.0645 125.722 33.293 125.698 33.5098C125.681 33.7266 125.66 33.8994 125.637 34.0283L124.89 34.1338C124.878 34.04 124.866 33.9111 124.854 33.7471C124.849 33.5889 124.84 33.416 124.828 33.2285C124.822 33.041 124.816 32.8506 124.811 32.6572C124.811 32.4639 124.811 32.2822 124.811 32.1123V26.6191C124.811 26.4492 124.723 26.3115 124.547 26.2061C124.377 26.0947 124.099 25.9893 123.712 25.8896L123.914 25.5029ZM134.25 29.124C134.25 29.2295 134.244 29.3525 134.232 29.4932C134.226 29.6338 134.217 29.7773 134.206 29.9238C134.194 30.0703 134.179 30.208 134.162 30.3369C134.15 30.46 134.135 30.5596 134.118 30.6357L133.336 30.7412C133.324 30.6768 133.312 30.5977 133.3 30.5039C133.295 30.4043 133.289 30.3018 133.283 30.1963C133.277 30.085 133.271 29.9766 133.265 29.8711C133.259 29.7656 133.256 29.6719 133.256 29.5898V26.6191C133.256 26.4492 133.174 26.3115 133.01 26.2061C132.852 26.0947 132.58 25.9893 132.193 25.8896L132.342 25.5029C132.489 25.5205 132.656 25.5439 132.843 25.5732C133.037 25.6025 133.224 25.6348 133.406 25.6699C133.593 25.7051 133.769 25.7373 133.933 25.7666C134.103 25.7959 134.241 25.8193 134.346 25.8369C134.335 25.8896 134.323 25.96 134.311 26.0479C134.299 26.1357 134.288 26.2236 134.276 26.3115C134.27 26.3994 134.264 26.4785 134.258 26.5488C134.253 26.6133 134.25 26.6484 134.25 26.6543V28.2979C134.373 28.2803 134.51 28.2627 134.663 28.2451C134.815 28.2275 134.967 28.21 135.12 28.1924C135.278 28.1689 135.427 28.1484 135.568 28.1309C135.714 28.1074 135.846 28.0869 135.964 28.0693L135.858 28.8691C135.77 28.8633 135.659 28.8604 135.524 28.8604C135.395 28.8545 135.257 28.8516 135.111 28.8516C134.964 28.8516 134.815 28.8516 134.663 28.8516C134.516 28.8516 134.379 28.8516 134.25 28.8516V29.124ZM130.936 28.6143C131.212 28.8193 131.513 29.0303 131.841 29.2471C132.175 29.458 132.556 29.6719 132.984 29.8887L132.255 30.5303C131.973 30.2959 131.692 30.0498 131.411 29.792C131.13 29.5283 130.842 29.2646 130.549 29.001C130.133 29.3936 129.685 29.7393 129.205 30.0381C128.724 30.3369 128.256 30.5918 127.798 30.8027L127.526 30.4512C127.895 30.2637 128.25 30.0469 128.589 29.8008C128.935 29.5547 129.252 29.2881 129.539 29.001C129.826 28.7139 130.081 28.415 130.303 28.1045C130.532 27.7939 130.714 27.4805 130.848 27.1641C130.684 27.1699 130.494 27.1787 130.277 27.1904C130.066 27.1963 129.879 27.2051 129.714 27.2168C129.65 27.2227 129.562 27.2314 129.451 27.2432C129.345 27.249 129.228 27.2607 129.099 27.2783C128.976 27.29 128.85 27.3047 128.721 27.3223C128.598 27.3398 128.487 27.3574 128.387 27.375L127.851 26.5488C127.922 26.5605 128.021 26.5752 128.15 26.5928C128.279 26.6104 128.417 26.625 128.563 26.6367C128.71 26.6484 128.853 26.6602 128.994 26.6719C129.134 26.6777 129.255 26.6807 129.354 26.6807C129.565 26.6807 129.782 26.6777 130.005 26.6719C130.227 26.666 130.447 26.6543 130.664 26.6367C130.886 26.6191 131.097 26.5986 131.297 26.5752C131.496 26.5459 131.68 26.5137 131.85 26.4785L132.175 26.7598C132.041 27.1113 131.868 27.4424 131.657 27.7529C131.452 28.0576 131.212 28.3447 130.936 28.6143ZM130.022 31.0225C130.321 31.0225 130.667 31.0166 131.059 31.0049C131.452 30.9932 131.847 30.9785 132.246 30.9609C132.644 30.9375 133.019 30.9141 133.371 30.8906C133.722 30.8613 134.009 30.832 134.232 30.8027C134.214 30.9492 134.203 31.0752 134.197 31.1807C134.191 31.2861 134.188 31.3887 134.188 31.4883V32.6572C134.188 32.8271 134.182 33.0146 134.171 33.2197C134.165 33.4307 134.121 33.6621 134.039 33.9141L133.265 34.0547C133.254 33.9844 133.242 33.8965 133.23 33.791C133.224 33.6855 133.215 33.5742 133.204 33.457C133.198 33.3457 133.192 33.2344 133.186 33.123C133.18 33.0176 133.177 32.9297 133.177 32.8594V31.4443C132.955 31.4385 132.717 31.4385 132.465 31.4443C132.214 31.4502 131.959 31.4619 131.701 31.4795C131.449 31.4912 131.197 31.5059 130.945 31.5234C130.699 31.541 130.462 31.5557 130.233 31.5674C130.046 31.5791 129.855 31.5996 129.662 31.6289C129.474 31.6582 129.284 31.6875 129.09 31.7168L128.721 30.917C128.797 30.9287 128.894 30.9404 129.011 30.9521C129.129 30.9639 129.249 30.9756 129.372 30.9873C129.495 30.999 129.612 31.0078 129.723 31.0137C129.84 31.0195 129.94 31.0225 130.022 31.0225Z" fill="#333333"/>
</svg>
