<?xml version="1.0" encoding="utf-8"?>
<!-- Generator: Adobe Illustrator 24.2.1, SVG Export Plug-In . SVG Version: 6.00 Build 0)  -->
<svg version="1.1" id="Layer_1" xmlns="http://www.w3.org/2000/svg" xmlns:xlink="http://www.w3.org/1999/xlink" x="0px" y="0px"
	 viewBox="0 0 192.4 192.4" style="enable-background:new 0 0 192.4 192.4;" xml:space="preserve">
<style type="text/css">
	.st0{fill:#FFEB60;}
</style>
<path class="st0" d="M96.2,172.3c-27.4,0-52.8-14.8-66.3-38.7c-0.2-0.4-0.2-0.9,0-1.3s0.6-0.7,1-0.8c5.5-1,9.4-4.9,12.3-12.5
	c2.7-7.1,4.1-16.1,5.6-25.7c0.3-2.1,0.6-4,0.9-6c0.7-4.1,1.3-6.7,2.2-8.4c0.5-1,1-1.7,1.7-2.2c1.4-1,3.5-1,4.9,0
	c0.7,0.5,1.2,1.2,1.7,2.2c0.8,1.7,1.5,4.3,2.2,8.4c0.3,1.9,0.6,3.8,0.9,5.7c1.6,10,3.1,20,6.2,27.2c1.6,3.8,3.5,6.5,5.7,8.4
	c2.4,2.1,5.3,3.1,8.8,3.1c3.5,0,6.3-1,8.8-3.1c2.2-1.9,4.1-4.6,5.7-8.4c3-7.2,4.5-16.8,6.1-26.9c0.3-2,0.6-4,1-6
	c0.7-4.1,1.3-6.7,2.2-8.4c0.5-1,1.1-1.7,1.7-2.2c1.4-1,3.5-1,4.9,0c0.7,0.5,1.2,1.2,1.7,2.2c0.8,1.7,1.5,4.3,2.2,8.4
	c0.3,1.9,0.6,3.7,0.9,5.6l0.1,0.3c1.6,10.2,3.1,19.7,6.1,27c1.6,3.8,3.5,6.5,5.7,8.4c2.4,2.1,5.3,3.1,8.8,3.1c3.5,0,6.3-1,8.8-3.1
	c2.2-1.9,4.1-4.6,5.7-8.4c3-7.2,4.5-16.8,6.1-26.9l0.1-0.4c0.3-1.9,0.6-3.7,0.9-5.6c0.7-4.1,1.3-6.7,2.2-8.4c0.5-1,1.1-1.7,1.7-2.2
	c0.7-0.5,1.5-0.8,2.4-0.8c0.5,0,1.1,0.1,1.7,0.5c0.4,0.4,0.6,0.9,0.7,1.4c1.5,6,2.2,12.1,2.2,18.3
	C172.3,138.1,138.1,172.3,96.2,172.3z M33.4,133.8c13.2,22,37.1,35.6,62.8,35.6c40.4,0,73.2-32.8,73.2-73.2c0-5.9-0.7-11.7-2.1-17.4
	c-0.2,0-0.3,0.1-0.4,0.2c-0.3,0.2-0.6,0.6-0.9,1.2c-0.7,1.4-1.3,3.8-1.9,7.6c-0.3,1.9-0.6,3.7-0.9,5.6l-0.1,0.3
	c-1.6,10.4-3.1,20.1-6.3,27.6c-1.8,4.2-3.9,7.3-6.5,9.5c-2.9,2.5-6.5,3.7-10.6,3.7c-4.1,0-7.7-1.3-10.6-3.7
	c-2.6-2.2-4.7-5.3-6.5-9.5c-3.2-7.5-4.7-17.3-6.3-27.6l-0.1-0.4c-0.3-1.9-0.6-3.7-0.9-5.6c-0.6-3.8-1.2-6.2-1.9-7.6
	c-0.3-0.6-0.6-1-0.9-1.2c-0.4-0.3-1.1-0.3-1.5,0c-0.3,0.2-0.6,0.6-0.9,1.2c-0.7,1.4-1.3,3.8-1.9,7.6c-0.3,2-0.6,3.9-0.9,5.9
	c-1.6,10.4-3.1,20.1-6.3,27.6c-1.8,4.2-3.9,7.3-6.5,9.5c-2.9,2.5-6.5,3.7-10.6,3.7c-4.1,0-7.7-1.3-10.6-3.7
	c-2.6-2.2-4.7-5.3-6.5-9.5c-3.2-7.5-4.8-17.7-6.3-27.6c-0.3-2.2-0.6-4-0.9-5.9c-0.6-3.8-1.2-6.2-1.9-7.6c-0.3-0.6-0.6-1-0.9-1.2
	c-0.4-0.3-1.1-0.3-1.5,0c-0.3,0.2-0.6,0.6-0.9,1.2c-0.7,1.4-1.3,3.8-1.9,7.6c-0.3,1.9-0.6,3.7-0.9,5.6l-0.1,0.3
	c-1.5,9.4-3,19-5.8,26.3C43,127.6,38.9,132.1,33.4,133.8z M139.8,120c-1.1,0-2.2-0.4-3-1.2c-0.7-0.7-1.4-1.8-1.9-3.2
	c-0.9-2.3-1.6-5.6-2.3-11.1c-0.3-1.8-0.5-3.7-0.8-5.6c-1-7.1-2.1-15.1-4.4-22.2c-1.6-4.9-3.7-8.7-6-11.3c-2.7-3.1-5.8-4.5-9.5-4.5
	c-3.7,0-6.8,1.5-9.5,4.5c-2.3,2.6-4.4,6.4-6,11.3c-2.3,7.1-3.4,15.1-4.3,22.2c-0.3,2-0.5,3.9-0.8,5.7c-0.8,5.5-1.5,8.9-2.3,11.1
	c-0.5,1.4-1.2,2.4-1.9,3.2c-1.7,1.7-4.3,1.7-6,0c-0.7-0.7-1.4-1.8-1.9-3.2c-0.9-2.3-1.6-5.6-2.3-11.1c-0.2-1.6-0.5-3.3-0.7-5
	L76,98.8c-1-7.1-2.1-15.1-4.4-22.2c-1.6-4.9-3.6-8.7-6-11.3c-2.7-3.1-5.8-4.5-9.5-4.5s-6.8,1.5-9.5,4.5c-2.3,2.6-4.4,6.4-6,11.3
	c-2.3,7.1-3.4,15.1-4.4,22.2l-0.1,0.5c-0.2,1.8-0.5,3.5-0.7,5.1c-0.8,5.5-1.5,8.9-2.3,11.1c-0.5,1.4-1.2,2.4-1.9,3.2
	c-0.9,0.8-1.9,1.2-3,1.2c-2.1,0-3.7-1.2-4.9-3.7c-0.9-1.9-1.6-4.6-2.4-8.9c-0.5-3.1-0.8-6.8-0.8-11.1c0-41.9,34.1-76,76-76
	c27.9,0,53.5,15.2,66.9,39.8c0.2,0.3,0.2,0.7,0.1,1.1c-0.1,0.4-0.4,0.7-0.7,0.8c-4.3,2.1-7.7,7-10.3,14.7
	c-2.3,7.1-3.4,15.1-4.4,22.2c-0.3,2-0.5,3.9-0.8,5.7c-0.8,5.5-1.4,8.8-2.3,11.1c-0.5,1.4-1.2,2.4-1.9,3.2
	C141.9,119.6,140.9,120,139.8,120z M111.9,57.9c4.5,0,8.4,1.8,11.6,5.5c2.6,2.9,4.8,7,6.6,12.3c2.4,7.4,3.5,15.5,4.5,22.7
	c0.3,2,0.5,3.9,0.8,5.6c0.7,5.3,1.4,8.5,2.2,10.5c0.4,1,0.8,1.7,1.2,2.1c0.6,0.6,1.4,0.6,2,0c0.4-0.4,0.8-1.1,1.2-2.1
	c0.8-2.1,1.4-5.2,2.2-10.5c0.3-1.8,0.5-3.7,0.8-5.6c1-7.2,2.1-15.3,4.5-22.7c2.6-7.7,6.1-12.9,10.4-15.6
	C146.9,37.2,122.6,23,96.2,23C55.9,23,23,55.9,23,96.2c0,4,0.3,7.7,0.8,10.6c0.7,4,1.4,6.5,2.1,8.2c0.9,1.9,1.7,2.1,2.3,2.1
	c0.4,0,0.7-0.1,1-0.4c0.4-0.4,0.8-1.1,1.2-2.1c0.8-2.1,1.4-5.2,2.2-10.5c0,0,0,0,0,0c0.2-1.6,0.5-3.3,0.7-5l0.1-0.6
	c1-7.2,2.1-15.4,4.5-22.7c1.8-5.3,4-9.4,6.6-12.3c3.2-3.6,7.2-5.5,11.6-5.5s8.4,1.8,11.6,5.5c2.6,2.9,4.8,7,6.6,12.3
	c2.4,7.4,3.5,15.5,4.5,22.7l0.1,0.6c0.2,1.7,0.5,3.4,0.7,5c0.7,5.3,1.4,8.5,2.2,10.5c0.4,1,0.8,1.7,1.2,2.1c0.6,0.6,1.4,0.6,2,0
	c0.4-0.4,0.8-1.1,1.2-2.1c0.8-2.1,1.4-5.2,2.2-10.5c0.3-1.8,0.5-3.7,0.8-5.6c1-7.2,2.1-15.4,4.5-22.7c1.8-5.3,4-9.4,6.6-12.3
	C103.5,59.8,107.4,57.9,111.9,57.9z"/>
</svg>
