<?xml version="1.0" encoding="utf-8"?>
<!-- Generator: Adobe Illustrator 24.2.1, SVG Export Plug-In . SVG Version: 6.00 Build 0)  -->
<svg version="1.1" id="Layer_1" xmlns="http://www.w3.org/2000/svg" xmlns:xlink="http://www.w3.org/1999/xlink" x="0px" y="0px"
	 viewBox="0 0 28.3 28.3" style="enable-background:new 0 0 28.3 28.3;" xml:space="preserve">
<style type="text/css">
	.st0{fill:#333333;}
</style>
<g>
	<path class="st0" d="M26.7,11.1c0-0.1-0.1-0.2-0.2-0.2c-0.5,0-0.7,0.5-0.9,1.8c-0.1,0.3-0.1,0.7-0.2,1c-0.5,3.5-1.1,6.8-3.7,6.8
		s-3.2-3.3-3.7-6.8c-0.1-0.3-0.1-0.7-0.2-1c-0.2-1.3-0.4-1.8-0.9-1.8c-0.5,0-0.7,0.5-0.9,1.8c-0.1,0.3-0.1,0.7-0.2,1
		c-0.5,3.5-1.1,6.8-3.7,6.8s-3.2-3.3-3.7-6.8c-0.1-0.3-0.1-0.7-0.2-1c-0.2-1.3-0.4-1.8-0.9-1.8s-0.7,0.5-0.9,1.8
		c-0.1,0.3-0.7,4.7-1.4,6c-0.5,1-1.1,1.6-2.1,1.8c2.2,4,6.4,6.6,11.3,6.6c7.1,0,12.9-5.8,12.9-12.9C27.1,13.1,26.9,12.1,26.7,11.1z"
		/>
	<path class="st0" d="M4.3,10.7c0.5-1.6,1.4-2.9,2.9-2.9s2.3,1.3,2.9,2.9c0.4,1.2,0.8,4.5,0.9,4.8c0.2,1.7,0.5,2.5,1.1,2.5
		s0.8-0.9,1.1-2.5c0-0.3,0.5-3.6,0.9-4.8c0.5-1.6,1.4-2.9,2.9-2.9c1.5,0,2.3,1.3,2.9,2.9c0.4,1.2,0.8,4.5,0.9,4.8
		c0.2,1.7,0.5,2.5,1.1,2.5c0.6,0,0.8-0.9,1.1-2.5c0-0.3,0.5-3.6,0.9-4.8c0.4-1.2,1-2.2,1.9-2.7c-2.2-4-6.5-6.8-11.4-6.8
		C6.9,1.3,1.2,7,1.2,14.2c0,0.5,0,1.2,0.1,1.9c0.2,1.3,0.5,2,1.1,2s0.8-0.9,1.1-2.5C3.5,15.3,3.9,12,4.3,10.7z"/>
</g>
</svg>
