<svg width="249" height="249" viewBox="0 0 249 249" fill="none" xmlns="http://www.w3.org/2000/svg">
<path d="M124.5 248.5C78.1484 248.5 37.7361 223.068 16.4569 185.394C27.445 183.475 34.1219 174.953 38.6442 163.19C43.258 151.189 45.6889 135.667 48.1498 119.952L48.1561 119.912L48.1563 119.911L48.1571 119.906L48.1572 119.905C48.6688 116.639 49.182 113.362 49.7165 110.104C50.7504 103.803 51.7989 99.5261 53.1189 96.8314C53.776 95.4902 54.4846 94.5746 55.2615 93.9939C56.0289 93.4203 56.8924 93.1512 57.9091 93.1512C58.9259 93.1512 59.7893 93.4203 60.5567 93.9939C61.3337 94.5746 62.0423 95.4902 62.6993 96.8314C64.0194 99.5261 65.0679 103.803 66.1018 110.104C66.6366 113.364 67.1499 116.641 67.6618 119.91L67.6695 119.959C70.2734 136.586 72.8443 153.002 78.0071 165.26C80.5939 171.402 83.8464 176.538 88.1135 180.142C92.3915 183.754 97.6636 185.802 104.235 185.802C110.806 185.802 116.078 183.754 120.356 180.142C124.623 176.539 127.875 171.402 130.462 165.261C135.625 153.003 138.196 136.588 140.8 119.961L140.807 119.911C141.319 116.643 141.833 113.364 142.368 110.104C143.402 103.803 144.45 99.5261 145.77 96.8314C146.427 95.4902 147.136 94.5746 147.913 93.9939C148.68 93.4203 149.544 93.1512 150.56 93.1512C151.577 93.1512 152.44 93.4203 153.208 93.9939C153.985 94.5746 154.693 95.4902 155.35 96.8314C156.671 99.5261 157.719 103.803 158.753 110.104C159.288 113.364 159.801 116.642 160.313 119.911L160.321 119.961C162.925 136.588 165.496 153.003 170.658 165.261C173.245 171.402 176.498 176.539 180.765 180.142C185.043 183.754 190.315 185.802 196.886 185.802C203.457 185.802 208.729 183.754 213.007 180.142C217.274 176.539 220.527 171.402 223.113 165.261C228.276 153.003 230.847 136.588 233.451 119.961L233.459 119.911C233.971 116.642 234.484 113.364 235.019 110.104C236.053 103.803 237.101 99.5261 238.421 96.8314C239.078 95.4902 239.787 94.5746 240.564 93.9939C241.331 93.4203 242.195 93.1512 243.211 93.1512C243.897 93.1512 244.189 93.2662 244.362 93.4245C244.554 93.6009 244.703 93.9218 244.873 94.6075C247.243 104.181 248.5 114.193 248.5 124.5C248.5 192.983 192.983 248.5 124.5 248.5ZM21.2631 137.829L21.2621 137.837C20.1656 145.833 19.0591 151.837 17.5286 155.837C16.7641 157.835 15.909 159.29 14.9315 160.242C13.9686 161.18 12.8773 161.64 11.5836 161.64C9.00044 161.64 7.09488 160.032 5.54436 156.765C3.98844 153.488 2.86026 148.671 1.80375 142.543C0.688161 136.071 0.5 129.012 0.5 124.5C0.5 56.0167 56.0167 0.5 124.5 0.5C171.582 0.5 212.535 26.7394 233.534 65.3946C224.728 69.7021 219.031 79.8114 215.225 91.1337L215.223 91.1398C211.357 103.143 209.513 116.617 207.893 128.464L207.89 128.485C207.444 131.744 207.015 134.878 206.565 137.829L206.564 137.837C205.468 145.833 204.361 151.837 202.831 155.837C202.066 157.835 201.211 159.29 200.234 160.242C199.271 161.18 198.18 161.64 196.886 161.64C195.592 161.64 194.501 161.18 193.538 160.242C192.56 159.29 191.705 157.835 190.941 155.837C189.41 151.837 188.304 145.833 187.207 137.837L187.206 137.829C186.757 134.878 186.328 131.744 185.882 128.485L185.879 128.464C184.258 116.617 182.415 103.143 178.549 91.1398L178.547 91.1338C176.015 83.604 172.656 76.6334 168.116 71.5379C163.566 66.4299 157.821 63.1977 150.56 63.1977C143.3 63.1977 137.554 66.4299 133.004 71.5379C128.465 76.6334 125.105 83.604 122.573 91.1337L122.571 91.1398C118.706 103.143 116.862 116.617 115.241 128.464L115.238 128.485C114.793 131.744 114.364 134.878 113.914 137.829L113.913 137.837C112.817 145.833 111.71 151.837 110.18 155.837C109.415 157.835 108.56 159.29 107.583 160.242C106.62 161.18 105.528 161.64 104.235 161.64C102.941 161.64 101.85 161.18 100.887 160.242C99.9093 159.29 99.0542 157.835 98.2897 155.837C96.7591 151.837 95.6526 145.833 94.5562 137.837L94.5551 137.829C94.1055 134.878 93.6767 131.744 93.2309 128.485L93.228 128.464C91.6073 116.617 89.7638 103.143 85.8981 91.1398L85.896 91.1338C83.3643 83.604 80.0044 76.6334 75.4653 71.5379C70.9151 66.4299 65.1694 63.1977 57.9091 63.1977C50.6489 63.1977 44.9032 66.4299 40.3529 71.5379C35.8139 76.6334 32.454 83.604 29.9222 91.1337L29.9202 91.1398C26.0545 103.142 24.2109 116.618 22.5902 128.464L22.5873 128.486L22.5871 128.487L22.5865 128.492C22.5864 128.492 22.5863 128.493 22.5863 128.493C22.1409 131.749 21.7124 134.88 21.2631 137.829Z" stroke="#FFEB60" stroke-linecap="round" stroke-linejoin="round"/>
</svg>
